<svg id="ad3" xmlns="http://www.w3.org/2000/svg" xmlns:xlink="http://www.w3.org/1999/xlink" width="392.078" height="374.807" viewBox="0 0 392.078 374.807">
  <defs>
    <clipPath id="clip-path">
      <rect id="Rectangle_142" data-name="Rectangle 142" width="246.12" height="261.867" fill="none"/>
    </clipPath>
    <clipPath id="clip-path-7">
      <rect id="Rectangle_136" data-name="Rectangle 136" width="5.658" height="19.277" fill="none"/>
    </clipPath>
    <clipPath id="clip-path-8">
      <rect id="Rectangle_137" data-name="Rectangle 137" width="8.559" height="6.472" fill="none"/>
    </clipPath>
    <clipPath id="clip-path-10">
      <rect id="Rectangle_139" data-name="Rectangle 139" width="37.272" height="16.022" fill="none"/>
    </clipPath>
    <clipPath id="clip-path-11">
      <rect id="Rectangle_140" data-name="Rectangle 140" width="17.925" height="34.968" fill="none"/>
    </clipPath>
  </defs>
  <path id="Path_669" data-name="Path 669" d="M312.812.247c33.137,3.013,63.367,24.495,41.258,102.54a73.016,73.016,0,0,1-4.024,10.745c-5.5,11.9-19.145,47.831-5.013,87.31a69.06,69.06,0,0,0,14.7,23.77c9.891,10.591,27.389,32.741,31.551,60.533,6.811,45.476-30.954,84.591-74.329,78.5-40.582-5.7-104.945-10.78-144.742,5.957a63.806,63.806,0,0,1-41.594,3.046C94.3,362.778,35.188,334.3,45.769,254.232c2.355-17.824-1.5-36.006-11.425-50.666C9.876,167.409-25.85,93.865,28.513,27A64.434,64.434,0,0,1,67.974,3.666c21.575-3.5,52.54-2.13,68.332,28.348,12,23.151,34.938,37.714,59.973,36.473,20.779-1.031,42.072-7.531,51.389-27.6,12.177-26.226,37.5-43.156,65.144-40.642" transform="translate(-0.001 0)" fill="#a9c0e2" opacity="0.45"/>
  <g id="Group_295" data-name="Group 295" transform="translate(72.979 72.936)">
    <g id="Group_294" data-name="Group 294" clip-path="url(#clip-path)">
      <g id="Group_271" data-name="Group 271">
        <g id="Group_270" data-name="Group 270" clip-path="url(#clip-path)">
          <path id="Path_798" data-name="Path 798" d="M0,181.706v30.036a9.84,9.84,0,0,0,9.84,9.84h107.7a9.84,9.84,0,0,0,9.84-9.84V186.363l13.408-14.088L9.87,171.866A9.84,9.84,0,0,0,0,181.706" transform="translate(0 -63.5)" fill="#f5f5f5"/>
          <path id="Path_799" data-name="Path 799" d="M119.574,198.7l-97.73-.451.01-3,97.73.451Z" transform="translate(-8.071 -72.138)" fill="#e0e0e0"/>
          <path id="Path_800" data-name="Path 800" d="M119.574,214.375l-97.73-.451.01-3,97.73.451Z" transform="translate(-8.071 -77.929)" fill="#e0e0e0"/>
          <rect id="Rectangle_128" data-name="Rectangle 128" width="3.004" height="38.67" transform="translate(72.833 145.888) rotate(-89.718)" fill="#e0e0e0"/>
          <path id="Path_801" data-name="Path 801" d="M158.27,346.305v30.036a9.84,9.84,0,0,0,9.84,9.84h107.7a9.84,9.84,0,0,0,9.84-9.84V350.962l13.408-14.088-130.917-.409a9.839,9.839,0,0,0-9.87,9.839" transform="translate(-58.476 -124.315)" fill="#f5f5f5"/>
          <path id="Path_802" data-name="Path 802" d="M278.587,362.064l-97.73-.451.01-3,97.73.451Z" transform="translate(-66.821 -132.496)" fill="#e0e0e0"/>
          <path id="Path_803" data-name="Path 803" d="M278.587,377.737l-97.73-.451.01-3,97.73.451Z" transform="translate(-66.821 -138.286)" fill="#e0e0e0"/>
          <rect id="Rectangle_129" data-name="Rectangle 129" width="3.004" height="38.67" transform="matrix(0.005, -1, 1, 0.005, 173.095, 248.892)" fill="#e0e0e0"/>
          <path id="Path_804" data-name="Path 804" d="M91.3,8.027h63.523a5.694,5.694,0,0,1,5.694,5.693V44.79a5.694,5.694,0,0,1-5.694,5.694h-53.9a5.694,5.694,0,0,1-5.694-5.694V11.953Z" transform="translate(-33.732 -2.966)" fill="#f5f5f5"/>
          <path id="Path_805" data-name="Path 805" d="M94.986,52.107V72.028a6.526,6.526,0,0,1-6.526,6.526H17.029A6.526,6.526,0,0,1,10.5,72.028V55.2L1.609,45.852l86.829-.271a6.526,6.526,0,0,1,6.547,6.526" transform="translate(-0.594 -16.841)" fill="#e0e0e0"/>
          <path id="Path_806" data-name="Path 806" d="M32.408,63.38l64.82-.3-.007-1.992-64.819.3Z" transform="translate(-11.972 -22.57)" fill="#f5f5f5"/>
          <path id="Path_807" data-name="Path 807" d="M32.408,73.775l64.82-.3-.007-1.992-64.819.3Z" transform="translate(-11.972 -26.411)" fill="#f5f5f5"/>
          <rect id="Rectangle_130" data-name="Rectangle 130" width="25.648" height="1.992" transform="translate(20.428 51.76) rotate(-0.282)" fill="#f5f5f5"/>
          <path id="Path_808" data-name="Path 808" d="M309.6,198.618V218.54a6.526,6.526,0,0,1-6.526,6.526H231.639a6.526,6.526,0,0,1-6.527-6.526V201.707l-8.893-9.343,86.83-.272a6.526,6.526,0,0,1,6.547,6.526" transform="translate(-79.887 -70.973)" fill="#e0e0e0"/>
          <path id="Path_809" data-name="Path 809" d="M247.019,209.89l64.82-.3-.007-1.992-64.819.3Z" transform="translate(-91.264 -76.702)" fill="#f5f5f5"/>
          <path id="Path_810" data-name="Path 810" d="M247.019,220.285l64.82-.3-.007-1.992-64.819.3Z" transform="translate(-91.264 -80.543)" fill="#f5f5f5"/>
          <rect id="Rectangle_131" data-name="Rectangle 131" width="25.647" height="1.992" transform="translate(155.746 144.139) rotate(-0.282)" fill="#f5f5f5"/>
        </g>
      </g>
      <g id="Group_273" data-name="Group 273">
        <g id="Group_272" data-name="Group 272" clip-path="url(#clip-path)">
          <path id="Path_811" data-name="Path 811" d="M261.649,314.607c-10.676-10.4-10.852-26.477-8.074-40.452.463-2.332.61-4.847,2.063-6.723s4.287-2.855,6.225-1.523c1.608,1.1,2.035,3.255,2.736,5.091a13.9,13.9,0,0,0,4.641,6.155c1.367,1.02,3.138,1.8,4.745,1.225,2.206-.785,2.9-3.542,3.269-5.877q1.027-6.53,2.054-13.058a22.054,22.054,0,0,1,1.839-6.814,7.334,7.334,0,0,1,5.349-4.148c2.322-.258,4.856,1.471,4.951,3.831a21.779,21.779,0,0,1-.409,2.916,2.487,2.487,0,0,0,1.057,2.545,2.859,2.859,0,0,0,2.738-.651,31.438,31.438,0,0,0,6.945-7.5,43.634,43.634,0,0,1,6.615-7.826c2.606-2.212,5.962-3.753,9.333-3.4s6.595,3,6.9,6.421-2.157,6.45-4.681,8.771a52.778,52.778,0,0,1-12.535,8.56,4.339,4.339,0,0,0-2.133,1.653c-.762,1.472.46,3.259,1.911,4.021,1.644.864,3.561.992,5.345,1.5s3.623,1.637,4.03,3.469c.565,2.541-1.838,4.714-4.069,6.03a45.222,45.222,0,0,1-14.45,5.46,15.244,15.244,0,0,0-5.3,1.581c-1.581.98-2.76,2.94-2.193,4.72s2.627,2.66,4.479,2.62a31.41,31.41,0,0,0,5.44-1.117c3.4-.685,7.509.214,9.109,3.321a7.48,7.48,0,0,1-.283,6.657,17.233,17.233,0,0,1-4.481,5.187,45.452,45.452,0,0,1-21.359,10.326c-7.859,1.361-14.865.931-21.814-2.982" transform="translate(-93.129 -88.065)" fill="#e8505b"/>
          <path id="Path_812" data-name="Path 812" d="M264.269,326.59a103.792,103.792,0,0,1,6.96-18.6,211.826,211.826,0,0,1,11.983-21.148l3.426-5.382c1.129-1.764,2.248-3.513,3.448-5.156a105.711,105.711,0,0,1,7.438-9.048c2.505-2.764,4.983-5.295,7.317-7.644s4.563-4.491,6.672-6.36a83.924,83.924,0,0,1,10.6-8.069c1.321-.852,2.368-1.479,3.083-1.894l.816-.467a1.7,1.7,0,0,1,.286-.146,1.756,1.756,0,0,1-.263.184l-.794.5c-.7.44-1.731,1.09-3.037,1.962a88.767,88.767,0,0,0-10.485,8.159c-2.09,1.878-4.3,4.031-6.62,6.385s-4.786,4.9-7.277,7.66a106.8,106.8,0,0,0-7.388,9.029c-1.191,1.636-2.3,3.371-3.429,5.14l-3.422,5.38a217.059,217.059,0,0,0-11.99,21.089,105.644,105.644,0,0,0-7.022,18.506" transform="translate(-97.64 -89.66)" fill="#263238"/>
          <path id="Path_813" data-name="Path 813" d="M305.37,280.643a4.794,4.794,0,0,1-.065-1.033c-.017-.665-.01-1.627.016-2.816.05-2.376.233-5.656.446-9.272s.349-6.891.363-9.262c.011-1.185.009-2.145,0-2.808a4.772,4.772,0,0,1,.035-1.034,4.671,4.671,0,0,1,.134,1.026c.061.662.11,1.624.138,2.813.065,2.379-.021,5.668-.236,9.289-.22,3.567-.419,6.795-.572,9.26-.062,1.115-.113,2.054-.154,2.808a4.737,4.737,0,0,1-.1,1.03" transform="translate(-112.798 -94)" fill="#263238"/>
          <path id="Path_814" data-name="Path 814" d="M336.325,294.4a6.615,6.615,0,0,1-1.22-.052c-.781-.058-1.91-.147-3.308-.212-2.8-.153-6.665-.23-10.938-.127s-8.138.375-10.926.646c-1.4.126-2.523.259-3.3.345a6.539,6.539,0,0,1-1.218.1,6.507,6.507,0,0,1,1.195-.266c.774-.139,1.9-.318,3.294-.485,2.788-.352,6.662-.666,10.949-.777a107.134,107.134,0,0,1,10.967.257c1.4.105,2.529.241,3.307.352a6.42,6.42,0,0,1,1.2.223" transform="translate(-112.841 -108.451)" fill="#263238"/>
          <path id="Path_815" data-name="Path 815" d="M270.859,321.583a1.564,1.564,0,0,1-.146-.4c-.091-.317-.2-.7-.335-1.17-.287-1.016-.663-2.5-1.1-4.335-.885-3.673-1.946-8.785-3.042-14.442s-2.11-10.774-2.917-14.461c-.4-1.793-.725-3.267-.968-4.364l-.257-1.189a1.579,1.579,0,0,1-.061-.422,1.585,1.585,0,0,1,.146.4c.09.316.2.7.335,1.168.287,1.016.663,2.5,1.1,4.335.885,3.673,1.947,8.786,3.043,14.445s2.11,10.773,2.916,14.459c.4,1.792.725,3.267.968,4.363.1.475.188.868.257,1.189a1.6,1.6,0,0,1,.061.422" transform="translate(-96.811 -103.748)" fill="#263238"/>
          <path id="Path_816" data-name="Path 816" d="M318,335.451a1.633,1.633,0,0,1-.422.1l-1.221.2-4.5.684c-3.8.579-9.027,1.438-14.808,2.4s-11.028,1.771-14.836,2.271c-1.9.25-3.446.438-4.515.545l-1.231.117a1.585,1.585,0,0,1-.433.011,1.637,1.637,0,0,1,.422-.1l1.221-.2,4.494-.684c3.8-.578,9.028-1.438,14.81-2.4s11.025-1.77,14.834-2.271c1.9-.251,3.446-.438,4.516-.545l1.231-.117a1.588,1.588,0,0,1,.433-.011" transform="translate(-101.988 -123.936)" fill="#263238"/>
          <path id="Path_817" data-name="Path 817" d="M97.575,126.5a7.018,7.018,0,0,1-2.413-6.621,9.321,9.321,0,0,1,4.012-5.981,3.924,3.924,0,0,1,3.2-.835,3,3,0,0,1,1.943,2.342,6.091,6.091,0,0,1-.366,3.139c-1.2,3.455-2.988,6.58-6.376,7.955" transform="translate(-35.123 -41.736)" fill="#455a64"/>
          <path id="Path_818" data-name="Path 818" d="M83.726,141.33a16.418,16.418,0,0,0-14.511-3.8c-1.29.3-2.742.98-2.954,2.287s.957,2.42,2.1,3.085a14.026,14.026,0,0,0,15.513-1.248" transform="translate(-24.472 -50.667)" fill="#455a64"/>
          <path id="Path_819" data-name="Path 819" d="M63.847,100.31A8.227,8.227,0,0,1,70.2,101.4a14.525,14.525,0,0,1,4.54,4.743c2.285,3.61,3.09,8.46,3.191,12.732-4.74-.192-8.791-3.918-10.728-5.937-3.06-3.192-6.653-10.818-3.351-12.63" transform="translate(-23.104 -36.973)" fill="#455a64"/>
          <path id="Path_820" data-name="Path 820" d="M102.926,142.127a17.036,17.036,0,0,1-1.183-1.787,30.148,30.148,0,0,1-2.67-7.612,15.106,15.106,0,0,1,.592-8.029,9.9,9.9,0,0,1,1.147-2.176,2.757,2.757,0,0,1,.586-.684,20.871,20.871,0,0,0-1.414,2.975,15.846,15.846,0,0,0-.439,7.829,34.9,34.9,0,0,0,2.507,7.555" transform="translate(-36.502 -45.016)" fill="#263238"/>
          <path id="Path_821" data-name="Path 821" d="M92.246,137.543l-2.469-3.184c-2.078-2.693-4.957-6.406-8.191-10.466s-6.21-7.692-8.372-10.318l-2.552-3.117a8.7,8.7,0,0,1-.892-1.181,8.82,8.82,0,0,1,1.033,1.06c.643.7,1.556,1.734,2.67,3.02,2.23,2.573,5.25,6.177,8.488,10.238s6.077,7.814,8.087,10.561c1.005,1.373,1.807,2.493,2.348,3.276" transform="translate(-25.778 -40.375)" fill="#263238"/>
          <path id="Path_822" data-name="Path 822" d="M75.655,141.849a2.968,2.968,0,0,1,.822-.252,6.882,6.882,0,0,1,.991-.189,11.58,11.58,0,0,1,1.33-.143,17.277,17.277,0,0,1,3.483.132,18.456,18.456,0,0,1,7.909,3.077,17.27,17.27,0,0,1,2.657,2.256,11.537,11.537,0,0,1,.884,1,6.893,6.893,0,0,1,.6.809c.308.46.264.676.236.695a27.557,27.557,0,0,0-1.962-2.268,19.221,19.221,0,0,0-2.665-2.13,19.5,19.5,0,0,0-7.728-3.006,19.261,19.261,0,0,0-3.4-.23c-1.949.049-3.139.337-3.158.245" transform="translate(-27.952 -52.18)" fill="#263238"/>
        </g>
      </g>
      <g id="Group_275" data-name="Group 275">
        <g id="Group_274" data-name="Group 274" clip-path="url(#clip-path)">
          <path id="Path_823" data-name="Path 823" d="M191.486,271.6l-72.826-.337a15.864,15.864,0,0,1-15.792-15.931l.772-182.577a15.865,15.865,0,0,1,15.937-15.8l72.827.337a15.865,15.865,0,0,1,15.791,15.931L207.422,255.8a15.864,15.864,0,0,1-15.937,15.8" transform="translate(-38.007 -21.044)" fill="#263238"/>
          <path id="Path_824" data-name="Path 824" d="M195.133,67.287l-14.12-.065a3.507,3.507,0,0,0-3.443,3.568l-.011,2.561a3.507,3.507,0,0,1-3.443,3.569l-27.523-.127a3.511,3.511,0,0,1-3.414-3.6l.011-2.561a3.511,3.511,0,0,0-3.414-3.6l-4.965-.023-12.358-.057a11.11,11.11,0,0,0-11.161,11.063l-.753,178.208A11.11,11.11,0,0,0,121.6,267.381l72.681.335a11.11,11.11,0,0,0,11.161-11.063l.753-178.209a11.11,11.11,0,0,0-11.059-11.157" transform="translate(-40.841 -24.737)" fill="#fafafa"/>
          <path id="Path_825" data-name="Path 825" d="M177.71,357.541a1.517,1.517,0,1,1-1.494-1.3,1.406,1.406,0,0,1,1.494,1.3" transform="translate(-64.551 -131.623)" fill="#455a64"/>
          <path id="Path_826" data-name="Path 826" d="M185.081,357.575a1.517,1.517,0,1,1-1.494-1.3,1.405,1.405,0,0,1,1.494,1.3" transform="translate(-67.274 -131.635)" fill="#455a64"/>
          <path id="Path_827" data-name="Path 827" d="M192.449,357.608a1.517,1.517,0,1,1-1.494-1.3,1.4,1.4,0,0,1,1.494,1.3" transform="translate(-69.996 -131.647)" fill="#455a64"/>
          <path id="Path_828" data-name="Path 828" d="M146.186,203.737c1.184.169,72.627,14.181,72.627,14.181V203.737Z" transform="translate(-54.012 -75.275)" fill="#ebebeb"/>
          <path id="Path_829" data-name="Path 829" d="M110.538,340.283s77.716-11,77.04-10.657-77.04,0-77.04,0Z" transform="translate(-40.841 -121.785)" fill="#ebebeb"/>
          <path id="Path_830" data-name="Path 830" d="M253.581,16.542c.091,0,.164,3.93.164,8.776s-.073,8.776-.164,8.776-.164-3.929-.164-8.776.073-8.776.164-8.776" transform="translate(-93.63 -6.112)" fill="#263238"/>
          <path id="Path_831" data-name="Path 831" d="M293.589,48.571c.037.083-3.528,1.736-7.962,3.693s-8.058,3.476-8.095,3.394,3.527-1.736,7.962-3.694,8.057-3.476,8.094-3.393" transform="translate(-102.54 -17.944)" fill="#263238"/>
          <path id="Path_832" data-name="Path 832" d="M289.932,0a1.619,1.619,0,0,1-.169.336l-.539.93c-.471.806-1.176,1.958-2.057,3.375-1.766,2.832-4.307,6.682-7.184,10.881s-5.447,8.024-7.261,10.823l-2.144,3.317-.591.9a1.649,1.649,0,0,1-.225.3,1.6,1.6,0,0,1,.169-.336l.539-.93c.47-.806,1.175-1.957,2.056-3.375,1.766-2.833,4.307-6.683,7.186-10.884s5.445-8.022,7.26-10.82L289.115,1.2l.591-.9a1.625,1.625,0,0,1,.225-.3" transform="translate(-99.669 0)" fill="#263238"/>
        </g>
      </g>
      <g id="Group_277" data-name="Group 277">
        <g id="Group_276" data-name="Group 276" clip-path="url(#clip-path)">
          <path id="Path_833" data-name="Path 833" d="M284.342,117.729H142.193a5.559,5.559,0,0,0-5.559,5.559v44.093a5.559,5.559,0,0,0,5.559,5.559h10.59c.852,4.6,1.851,10.414,1.851,10.414l9.585-10.414H284.342a5.56,5.56,0,0,0,5.559-5.559V123.288a5.559,5.559,0,0,0-5.559-5.559" transform="translate(-50.482 -43.498)" fill="#e8505b"/>
          <path id="Path_834" data-name="Path 834" d="M233.6,155.566c0,.091-16.918.164-37.784.164s-37.788-.073-37.788-.164,16.915-.164,37.788-.164,37.784.073,37.784.164" transform="translate(-58.386 -57.417)" fill="#f5f5f5"/>
          <path id="Path_835" data-name="Path 835" d="M233.6,144.817c0,.091-16.918.164-37.784.164s-37.788-.073-37.788-.164,16.915-.164,37.788-.164,37.784.073,37.784.164" transform="translate(-58.386 -53.445)" fill="#f5f5f5"/>
          <path id="Path_836" data-name="Path 836" d="M233.6,166.2c0,.091-16.918.164-37.784.164s-37.788-.073-37.788-.164,16.915-.164,37.788-.164,37.784.073,37.784.164" transform="translate(-58.386 -61.345)" fill="#f5f5f5"/>
          <path id="Path_837" data-name="Path 837" d="M207.527,177.21c0,.091-11.082.164-24.749.164s-24.751-.073-24.751-.164,11.08-.164,24.751-.164,24.749.073,24.749.164" transform="translate(-58.387 -65.413)" fill="#f5f5f5"/>
          <path id="Path_838" data-name="Path 838" d="M182.775,243.453H39.459a3.889,3.889,0,0,0-3.889,3.889v46.65a3.889,3.889,0,0,0,3.889,3.889H143.546l9.475,10.3s.994-5.786,1.831-10.3h27.923a3.889,3.889,0,0,0,3.889-3.889v-46.65a3.889,3.889,0,0,0-3.889-3.889" transform="translate(-13.142 -89.949)" fill="#455a64"/>
          <path id="Path_839" data-name="Path 839" d="M215.834,281.509c0,.091-16.918.164-37.784.164s-37.788-.073-37.788-.164,16.915-.164,37.788-.164,37.784.073,37.784.164" transform="translate(-51.823 -103.949)" fill="#f5f5f5"/>
          <path id="Path_840" data-name="Path 840" d="M215.834,270.76c0,.091-16.918.164-37.784.164s-37.788-.073-37.788-.164,16.915-.164,37.788-.164,37.784.073,37.784.164" transform="translate(-51.823 -99.978)" fill="#f5f5f5"/>
          <path id="Path_841" data-name="Path 841" d="M215.834,292.14c0,.091-16.918.164-37.784.164s-37.788-.073-37.788-.164,16.915-.164,37.788-.164,37.784.073,37.784.164" transform="translate(-51.823 -107.877)" fill="#f5f5f5"/>
          <path id="Path_842" data-name="Path 842" d="M189.763,303.153c0,.091-11.082.164-24.749.164s-24.751-.073-24.751-.164,11.08-.164,24.751-.164,24.749.073,24.749.164" transform="translate(-51.823 -111.946)" fill="#f5f5f5"/>
        </g>
      </g>
      <g id="Group_285" data-name="Group 285">
        <g id="Group_284" data-name="Group 284" clip-path="url(#clip-path)">
          <path id="Path_843" data-name="Path 843" d="M312.382,76.573c.085-1.159-.949-2.757-1.907-3.676a3.773,3.773,0,0,1-1.052-4.017c.386-1.431,1.294-1.325,1.653-2.166a6.369,6.369,0,0,0,.209-2.009,4.186,4.186,0,0,1,4.991-3.556,5.8,5.8,0,0,1,10.694-1.114,4.46,4.46,0,0,1,6.5,3.62,3.247,3.247,0,0,1,4.221.637A4,4,0,0,1,338,68.7a5.246,5.246,0,0,1-3.789,2.5,7.7,7.7,0,0,1-4.55-.827,14.731,14.731,0,0,1-3.733-2.82" transform="translate(-114.256 -21.044)" fill="#263238"/>
          <path id="Path_844" data-name="Path 844" d="M341.873,145.086c0,14.722-12.221,26.656-27.3,26.656s-27.3-11.934-27.3-26.656,12.221-26.656,27.3-26.656,27.3,11.935,27.3,26.656" transform="translate(-106.143 -43.757)" fill="#e0e0e0"/>
          <path id="Path_845" data-name="Path 845" d="M365.923,156.2l-3.021-7.747-10.829,6.8,9.649,14.878s3.924-5.1,4.2-13.934" transform="translate(-130.081 -54.85)" fill="#eb996e"/>
          <path id="Path_846" data-name="Path 846" d="M322.36,110.07h0a7.262,7.262,0,0,0,7.294-6.868c.16-3.208.294-6.3.294-6.3s5.957-.432,6.506-6.255.625-19.29.625-19.29a20.666,20.666,0,0,0-20.749.9l-.567.364-.688,30.135a7.264,7.264,0,0,0,7.284,7.31" transform="translate(-116.411 -25.492)" fill="#ffbe9d"/>
          <path id="Path_847" data-name="Path 847" d="M331.39,86.928A.848.848,0,0,1,331.933,88a.859.859,0,0,1-1.083.538.848.848,0,0,1-.544-1.074.859.859,0,0,1,1.083-.538" transform="translate(-122.023 -32.101)" fill="#263238"/>
          <path id="Path_848" data-name="Path 848" d="M332.894,86.893c-.1.1-.65-.38-1.461-.432s-1.425.329-1.509.22c-.041-.049.062-.226.33-.4a2.019,2.019,0,0,1,2.37.17c.24.214.317.4.269.446" transform="translate(-121.894 -31.764)" fill="#263238"/>
          <path id="Path_849" data-name="Path 849" d="M345.489,86.928A.848.848,0,0,1,346.032,88a.859.859,0,0,1-1.083.538.848.848,0,0,1-.544-1.074.859.859,0,0,1,1.083-.538" transform="translate(-127.232 -32.101)" fill="#263238"/>
          <path id="Path_850" data-name="Path 850" d="M347.165,86.921c-.1.1-.65-.38-1.461-.432s-1.425.328-1.509.22c-.041-.049.062-.226.33-.4a2.019,2.019,0,0,1,2.37.17c.24.214.317.4.269.446" transform="translate(-127.167 -31.774)" fill="#263238"/>
          <path id="Path_851" data-name="Path 851" d="M339.207,93.335a3.975,3.975,0,0,1,1.332-.17c.214-.006.384-.04.409-.151a1.137,1.137,0,0,0-.1-.614l-.508-1.683a22.281,22.281,0,0,1-1.036-4.4,22.27,22.27,0,0,1,1.48,4.274c.163.585.318,1.142.472,1.693a1.334,1.334,0,0,1,.044.882.555.555,0,0,1-.392.306,1.365,1.365,0,0,1-.366.018,3.974,3.974,0,0,1-1.334-.154" transform="translate(-125.327 -31.891)" fill="#263238"/>
          <path id="Path_852" data-name="Path 852" d="M334.3,111.5a13.806,13.806,0,0,1-7.491-2.778s1.469,4.341,7.381,4.289Z" transform="translate(-120.747 -40.169)" fill="#eb996e"/>
          <path id="Path_853" data-name="Path 853" d="M313.609,87.787a.885.885,0,0,0-.832-.9c-1.1-.052-2.9.346-3.131,3.347-.325,4.288,3.863,3.3,3.88,3.176.013-.1.063-3.955.084-5.624" transform="translate(-114.399 -32.101)" fill="#ffbe9d"/>
          <path id="Path_854" data-name="Path 854" d="M313.282,92.506c-.018-.015-.079.047-.211.1a.762.762,0,0,1-.564-.031,1.846,1.846,0,0,1-.737-1.723,2.456,2.456,0,0,1,.292-1.054.87.87,0,0,1,.61-.531.386.386,0,0,1,.429.238c.049.124.015.207.037.216s.1-.064.077-.244a.48.48,0,0,0-.15-.282.572.572,0,0,0-.409-.14,1.06,1.06,0,0,0-.838.606,2.528,2.528,0,0,0-.351,1.176,1.941,1.941,0,0,0,.959,1.934.816.816,0,0,0,.7-.062c.142-.1.172-.19.158-.2" transform="translate(-115.077 -32.902)" fill="#eb996e"/>
          <path id="Path_855" data-name="Path 855" d="M328.527,83.126c.214.275.96.147,1.928.106.967-.078,1.723-.041,1.9-.34.2-.312-.735-1.027-1.982-.924-1.25.05-2.085.873-1.846,1.158" transform="translate(-121.366 -30.281)" fill="#263238"/>
          <path id="Path_856" data-name="Path 856" d="M343.518,82.818c.117.375.827.487,1.615.482s1.5-.147,1.6-.524-.6-.893-1.62-.879-1.718.558-1.6.921" transform="translate(-126.915 -30.258)" fill="#263238"/>
          <path id="Path_857" data-name="Path 857" d="M337.882,72.568a9.68,9.68,0,0,1-8.132-.584c-3.018-1.506-6.535-2.242-7.31-1.636s-.94,3.716-3.929,4.624c0,0,.206,5.933-2.16,5.721s-.887-9.4-.887-9.4l5.786-2.826,6.315-1.193,5.95.839,4.6,1.26Z" transform="translate(-116.387 -24.856)" fill="#263238"/>
          <path id="Path_858" data-name="Path 858" d="M288.48,126.782c6.183-6.359,17.067-5.665,17.067-5.665l9.021,6.459,5.116-5.956a33.179,33.179,0,0,1,10.414,3.222l.347.108,0,.072c3.957,2.149,9.561,7.3,14.9,12.3l-6.388,5.928-7.07,6.276a.185.185,0,0,1,.012.125c-.074.38.983,9.013,2.065,15.575a26.622,26.622,0,0,1-23.759,7.178,71.03,71.03,0,0,1-6.97-1.914,9.7,9.7,0,0,1-7.183-8.547c-.482-5.5-.849-12.308-.849-12.308" transform="translate(-106.585 -44.741)" fill="#455a64"/>
          <path id="Path_859" data-name="Path 859" d="M346.938,123.686a6.851,6.851,0,0,1,.388,1.015c.231.66.546,1.621.918,2.814.745,2.385,1.693,5.707,2.59,9.414s1.567,7.1,1.993,9.561c.213,1.231.372,2.23.467,2.922a6.971,6.971,0,0,1,.117,1.08,6.82,6.82,0,0,1-.243-1.059c-.145-.739-.337-1.717-.569-2.9-.484-2.448-1.191-5.824-2.084-9.526s-1.806-7.025-2.493-9.425l-.817-2.842a6.883,6.883,0,0,1-.267-1.053" transform="translate(-128.183 -45.698)" fill="#263238"/>
          <path id="Path_860" data-name="Path 860" d="M356.152,153.886c-.057-.07,2.64-2.363,6.023-5.119s6.175-4.936,6.232-4.866-2.639,2.363-6.025,5.12-6.173,4.935-6.231,4.865" transform="translate(-131.588 -53.167)" fill="#263238"/>
          <g id="Group_280" data-name="Group 280" transform="translate(184.522 90.769)" opacity="0.2">
            <g id="Group_279" data-name="Group 279">
              <g id="Group_278" data-name="Group 278" clip-path="url(#clip-path-7)">
                <path id="Path_861" data-name="Path 861" d="M298.182,143.957l-5.535,18.206,2.06,1.071,2.03-5.149s2.086-10.817,1.445-14.128" transform="translate(-292.647 -143.957)"/>
              </g>
            </g>
          </g>
          <g id="Group_283" data-name="Group 283" transform="translate(210.286 76.784)" opacity="0.2">
            <g id="Group_282" data-name="Group 282">
              <g id="Group_281" data-name="Group 281" clip-path="url(#clip-path-8)">
                <path id="Path_862" data-name="Path 862" d="M341.377,122.991c2.983,1.573-4.494,5.358-7.871,5.255l2.453-6.47a34.038,34.038,0,0,1,5.418,1.215" transform="translate(-333.507 -121.777)"/>
              </g>
            </g>
          </g>
          <path id="Path_863" data-name="Path 863" d="M314.137,118.952v-4.821s9.417,2.423,9.758,8.058c0,0,1.2-6.228,6.049-6.527l.685,8.76-5.646,4.912h-5.722l-4.533-3.91-.592-6.083" transform="translate(-116.065 -42.168)" fill="#455a64"/>
          <path id="Path_864" data-name="Path 864" d="M331.7,154.433a6.287,6.287,0,0,1-.016-1.037c.014-.666.026-1.63.029-2.82.008-2.381-.066-5.67-.364-9.29s-.772-6.877-1.173-9.224l-.494-2.777a6.334,6.334,0,0,1-.155-1.025,6.22,6.22,0,0,1,.28,1c.163.648.369,1.591.6,2.762a86.444,86.444,0,0,1,1.542,18.558c-.033,1.193-.081,2.158-.134,2.823a6.226,6.226,0,0,1-.111,1.032" transform="translate(-121.747 -47.388)" fill="#263238"/>
          <path id="Path_865" data-name="Path 865" d="M323.259,122.857a1.139,1.139,0,0,0-.559.052c-.36.117-.682.564-.945,1.2a27.268,27.268,0,0,0-1.791,5.209l-.05.216-.19-.115c-.563-.34-1.141-.708-1.721-1.1A34.4,34.4,0,0,1,314.95,126a3.848,3.848,0,0,1-1.039-1.361,4.279,4.279,0,0,1-.318-1.454,8.425,8.425,0,0,1,.209-2.108,3.119,3.119,0,0,1,.206-.746,3.9,3.9,0,0,1-.08.767,9.928,9.928,0,0,0-.1,2.072,4.171,4.171,0,0,0,.334,1.358,3.622,3.622,0,0,0,.991,1.245c.89.745,1.924,1.518,3.038,2.276.576.391,1.147.757,1.7,1.1l-.24.1a23.785,23.785,0,0,1,1.917-5.227,3.961,3.961,0,0,1,.495-.811,1.26,1.26,0,0,1,.6-.407c.4-.112.61.049.6.054" transform="translate(-115.862 -44.459)" fill="#263238"/>
          <path id="Path_866" data-name="Path 866" d="M336.085,116.558a3.458,3.458,0,0,1,.088.753c.041.553.091,1.239.151,2.052.071.864.175,1.892.352,3.023a5.044,5.044,0,0,1,.113,1.851,3.179,3.179,0,0,1-1.238,1.582,13.915,13.915,0,0,0-2.073,1.574l-.25.281-.025-.375a11.278,11.278,0,0,0-1.391-4.7c-.6-1.074-1.092-1.626-1.053-1.658a1.806,1.806,0,0,1,.371.372,9.2,9.2,0,0,1,.854,1.185,10.759,10.759,0,0,1,1.533,4.774l-.276-.094a13.24,13.24,0,0,1,2.11-1.626,2.918,2.918,0,0,0,1.125-1.4,4.984,4.984,0,0,0-.1-1.726c-.162-1.143-.243-2.181-.284-3.052s-.049-1.576-.047-2.062a3.315,3.315,0,0,1,.039-.757" transform="translate(-122.205 -43.065)" fill="#263238"/>
          <path id="Path_867" data-name="Path 867" d="M378.929,118.477c-.383.451-14.246,18.988-14.246,18.988l1.952,1.106,14.226-18.3Z" transform="translate(-134.74 -43.774)" fill="#263238"/>
          <path id="Path_868" data-name="Path 868" d="M294.607,138.255s14.583,20.993,15.462,21.406c1.731.812,21.683-16.43,23.585-18.079.262-.35.8-1.09,1.866-2.56,0,0,1.574-7.2,3.254-6.65s-.92,3.66.174,6.4,6.1-3.791,6.3-4.376l1.292-1.689s1.355,3.842,1.264,5.446c-.294,5.139-5.156,11.251-5.156,11.251s-21.835,27.048-36.791,27.888c-4.308.241-11.963-11.981-17.081-21.147a12.542,12.542,0,0,1,3.574-16.243Z" transform="translate(-106.109 -48.897)" fill="#ffbe9d"/>
          <path id="Path_869" data-name="Path 869" d="M379.433,140.776c-.049-.03.419-.856.934-1.9s.892-1.917.945-1.9a11.838,11.838,0,0,1-1.88,3.8" transform="translate(-140.188 -50.609)" fill="#eb996e"/>
          <path id="Path_870" data-name="Path 870" d="M290.162,125.472s-15.654,5.565-4.015,31.888l18.07-10.906-2.571-6.155Z" transform="translate(-104.133 -46.358)" fill="#455a64"/>
          <path id="Path_871" data-name="Path 871" d="M291.485,126.18a5.434,5.434,0,0,1,1.885.158,7.662,7.662,0,0,1,2.053.867,11.11,11.11,0,0,1,2.281,1.871,27.356,27.356,0,0,1,4.252,6.353c1.324,2.559,2.559,5.474,3.827,8.537.38.917.754,1.822,1.108,2.678l.057.136-.129.07c-5.228,2.85-9.781,5.519-13,7.517-1.61,1-2.893,1.816-3.772,2.385l-1.015.651a2.162,2.162,0,0,1-.363.21,2.207,2.207,0,0,1,.329-.261c.223-.161.55-.4.983-.7.86-.6,2.126-1.449,3.722-2.472,3.19-2.049,7.73-4.755,12.959-7.617l-.073.206-1.11-2.678c-1.267-3.062-2.491-5.972-3.793-8.525a27.847,27.847,0,0,0-4.151-6.331,11.167,11.167,0,0,0-2.208-1.874,7.826,7.826,0,0,0-1.989-.9,11.472,11.472,0,0,0-1.852-.282" transform="translate(-106.655 -46.611)" fill="#263238"/>
          <path id="Path_872" data-name="Path 872" d="M339.127,64.3a.924.924,0,0,1,.078.275,3.568,3.568,0,0,1,.045.817,4.179,4.179,0,0,1-5.407,3.793,3.719,3.719,0,0,1-2.157-1.564,2.2,2.2,0,0,1-.323-1.424,1.841,1.841,0,0,1,.774-1.3,1.6,1.6,0,0,1,1.514-.1,1.922,1.922,0,0,1,1.035,1.04,2.759,2.759,0,0,1-.414,2.62,3.287,3.287,0,0,1-4.135.9,7.058,7.058,0,0,0-1.557-.6,1.953,1.953,0,0,0-1.2.127,6.53,6.53,0,0,0-.9.591c-.008-.008.055-.082.184-.217a1.563,1.563,0,0,1,.257-.232,1.907,1.907,0,0,1,.4-.257,2.043,2.043,0,0,1,1.29-.192,6.86,6.86,0,0,1,1.619.566,4.624,4.624,0,0,0,.91.3,2.878,2.878,0,0,0,1.016-.019,2.974,2.974,0,0,0,1.873-1.147,2.465,2.465,0,0,0,.361-2.318,1.487,1.487,0,0,0-2.071-.792,1.523,1.523,0,0,0-.631,1.07,1.887,1.887,0,0,0,.276,1.216,3.441,3.441,0,0,0,1.966,1.438,4.034,4.034,0,0,0,3.963-.937,4.283,4.283,0,0,0,1.231-2.577,8.632,8.632,0,0,0,0-1.081" transform="translate(-120.624 -23.757)" fill="#455a64"/>
          <path id="Path_873" data-name="Path 873" d="M339.322,101.1c.006.04-.194.123-.541.137a2.806,2.806,0,0,1-2.329-1.173c-.194-.288-.247-.5-.211-.516a4.321,4.321,0,0,0,3.081,1.552" transform="translate(-124.228 -36.778)" fill="#263238"/>
          <path id="Path_874" data-name="Path 874" d="M313.7,96.96c.029-.027.206.277-.023.711a1.053,1.053,0,0,1-.643.51,1.09,1.09,0,0,1-.979-.257,1.176,1.176,0,0,1-.415-.916,1.262,1.262,0,0,1,.288-.755c.3-.356.61-.389.615-.353.023.047-.223.159-.427.489a.981.981,0,0,0,.154,1.287.829.829,0,0,0,.694.21.887.887,0,0,0,.516-.34c.229-.306.167-.58.219-.587" transform="translate(-115.143 -35.429)" fill="#263238"/>
          <path id="Path_875" data-name="Path 875" d="M345.612,67.667a2.08,2.08,0,0,1,.3,1.158,3.851,3.851,0,0,1-3.505,4.042,2.08,2.08,0,0,1-1.189-.136c.008-.056.458.026,1.158-.094a3.894,3.894,0,0,0,3.3-3.81c.02-.71-.125-1.144-.071-1.16" transform="translate(-126.071 -25.001)" fill="#455a64"/>
          <path id="Path_876" data-name="Path 876" d="M303.4,151.335c.04.081-4.117,2.219-9.285,4.774s-9.392,4.561-9.432,4.481,4.117-2.219,9.286-4.775,9.39-4.561,9.431-4.48" transform="translate(-105.182 -55.913)" fill="#e0e0e0"/>
          <path id="Path_877" data-name="Path 877" d="M298.58,139.994c.043.08-3.658,2.149-8.266,4.622s-8.378,4.413-8.421,4.334,3.658-2.149,8.266-4.623,8.378-4.413,8.421-4.333" transform="translate(-104.151 -51.723)" fill="#e0e0e0"/>
          <path id="Path_878" data-name="Path 878" d="M295.066,130.821a14.868,14.868,0,0,1-1.851,1.1l-4.527,2.525-4.5,2.568a14.79,14.79,0,0,1-1.9,1.018,13.114,13.114,0,0,1,1.776-1.216c1.123-.711,2.7-1.658,4.462-2.655s3.39-1.851,4.58-2.445a13.075,13.075,0,0,1,1.96-.89" transform="translate(-104.297 -48.334)" fill="#e0e0e0"/>
          <path id="Path_879" data-name="Path 879" d="M320.683,125.579a2.97,2.97,0,0,1-1.218-.328,9.346,9.346,0,0,1-2.55-1.66,17.485,17.485,0,0,1-2.057-2.227,4.542,4.542,0,0,1-.711-1.033,4.993,4.993,0,0,1,.888.883,29.838,29.838,0,0,0,2.1,2.132,11.666,11.666,0,0,0,2.429,1.694c.677.347,1.134.489,1.12.538" transform="translate(-116.067 -44.459)" fill="#e0e0e0"/>
          <path id="Path_880" data-name="Path 880" d="M337.111,123.237a4.392,4.392,0,0,1-3.4,2.859,22.362,22.362,0,0,0,1.875-1.22,22.263,22.263,0,0,0,1.521-1.639" transform="translate(-123.298 -45.532)" fill="#e0e0e0"/>
          <path id="Path_881" data-name="Path 881" d="M344.591,138.282a1.466,1.466,0,0,1-.351.066l-1.014.125c-.881.1-2.16.221-3.742.344-3.162.252-7.538.5-12.375.675s-9.221.235-12.393.209c-1.586-.01-2.87-.041-3.757-.076l-1.02-.052a1.474,1.474,0,0,1-.355-.04,1.447,1.447,0,0,1,.357-.026l1.021-.009,3.753-.028c3.169-.033,7.547-.136,12.382-.3s9.207-.386,12.37-.579l3.746-.24,1.02-.063a1.479,1.479,0,0,1,.358,0" transform="translate(-114.383 -51.088)" fill="#e0e0e0"/>
          <path id="Path_882" data-name="Path 882" d="M341.617,150.139a6.4,6.4,0,0,1-1.036.163c-.67.083-1.64.188-2.841.3-2.4.221-5.727.45-9.4.6s-7.011.188-9.423.161c-1.206-.01-2.182-.037-2.856-.066a6.408,6.408,0,0,1-1.046-.079,6.455,6.455,0,0,1,1.047-.049l2.854-.038c2.409-.033,5.737-.109,9.411-.257s7-.341,9.4-.5l2.848-.192a6.351,6.351,0,0,1,1.048-.036" transform="translate(-116.388 -55.468)" fill="#e0e0e0"/>
          <path id="Path_883" data-name="Path 883" d="M330.866,164.759a12.541,12.541,0,0,1-2.09.294c-1.3.134-3.09.277-5.076.376s-3.786.134-5.088.13a12.5,12.5,0,0,1-2.108-.086,14.459,14.459,0,0,1,2.1-.146l5.077-.225,5.073-.28a14.321,14.321,0,0,1,2.109-.063" transform="translate(-116.939 -60.866)" fill="#e0e0e0"/>
          <path id="Path_884" data-name="Path 884" d="M311.306,129.976c0,.095-1.936.115-4.317.215s-4.31.234-4.32.141a32.181,32.181,0,0,1,8.637-.356" transform="translate(-111.828 -47.967)" fill="#e0e0e0"/>
          <path id="Path_885" data-name="Path 885" d="M351.987,129.415a95.633,95.633,0,0,1-11.205-.042,95.641,95.641,0,0,1,11.205.042" transform="translate(-125.909 -47.746)" fill="#e0e0e0"/>
          <path id="Path_886" data-name="Path 886" d="M350.581,190.372a2.568,2.568,0,0,1-.574.33c-.378.2-.938.453-1.64.747a35.859,35.859,0,0,1-11.55,2.662c-.76.043-1.376.057-1.8.046a2.58,2.58,0,0,1-.661-.045c0-.053.938-.089,2.445-.233a44.275,44.275,0,0,0,11.483-2.646c1.417-.53,2.277-.909,2.3-.861" transform="translate(-123.534 -70.335)" fill="#e0e0e0"/>
        </g>
      </g>
      <g id="Group_293" data-name="Group 293">
        <g id="Group_292" data-name="Group 292" clip-path="url(#clip-path)">
          <path id="Path_887" data-name="Path 887" d="M46.673,269.929c0,14.38,12.221,26.038,27.3,26.038s27.3-11.658,27.3-26.038-12.221-26.038-27.3-26.038-27.3,11.658-27.3,26.038" transform="translate(-17.244 -90.111)" fill="#e0e0e0"/>
          <path id="Path_888" data-name="Path 888" d="M73.865,185.619c-4.33.226-6.03,4.74-6.549,5.747a8.746,8.746,0,0,0-.694,3.3,7.18,7.18,0,0,1-.831,3.261c-.953,1.521-2.955,2.307-3.5,4.018-.617,1.933.967,4,.545,5.988-.226,1.066-1,1.943-1.279,3a4.412,4.412,0,0,0,.585,3.274c1.422,2.443,4.37,3.67,7.195,3.771a25.321,25.321,0,0,0,8.288-1.58" transform="translate(-22.702 -68.581)" fill="#263238"/>
          <path id="Path_889" data-name="Path 889" d="M109.074,194.517a2.7,2.7,0,0,0,.641,2.79,17.382,17.382,0,0,0,2.344,1.91,3.83,3.83,0,0,1,1.6,2.474c.084.924-.38,1.84-.254,2.758.323,2.361,4.088,3.069,4.288,5.443.134,1.581-1.489,3.033-1.039,4.554a7.234,7.234,0,0,0,.937,1.556c1.068,1.774.344,4.22-1.2,5.6a9.2,9.2,0,0,1-5.768,1.953c-1.74.078-3.716-.206-4.74-1.614-.938-1.289-.745-3.045-.558-4.628a161.848,161.848,0,0,0,.576-22.294" transform="translate(-38.856 -71.869)" fill="#263238"/>
          <path id="Path_890" data-name="Path 890" d="M79.287,227.336c.033-3.882,0-7.969,0-7.969s-4.991-.888-5.952-7.424c-.916-6.234.638-19.641.638-19.641,7.231-2.853,15.372-1.749,20.438,4.071L93.62,227.9a6.763,6.763,0,0,1-7.228,6.368,7.145,7.145,0,0,1-7.1-6.928" transform="translate(-26.987 -70.492)" fill="#ffbe9d"/>
          <path id="Path_891" data-name="Path 891" d="M76.667,209.074a.837.837,0,0,0,.8.854.8.8,0,0,0,.871-.745.838.838,0,0,0-.8-.854.8.8,0,0,0-.872.745" transform="translate(-28.326 -76.971)" fill="#263238"/>
          <path id="Path_892" data-name="Path 892" d="M74.526,207.981c.1.11.742-.351,1.643-.338,1.694.245,1.663.5,1.654.361.049-.048-.055-.245-.34-.458a2.289,2.289,0,0,0-1.322-.425,2.208,2.208,0,0,0-1.309.406c-.279.209-.375.406-.325.455" transform="translate(-27.531 -76.525)" fill="#263238"/>
          <path id="Path_893" data-name="Path 893" d="M91.283,209.5a.837.837,0,0,0,.8.854.8.8,0,0,0,.871-.745.837.837,0,0,0-.8-.854.8.8,0,0,0-.872.745" transform="translate(-33.726 -77.127)" fill="#263238"/>
          <path id="Path_894" data-name="Path 894" d="M89.421,208.475c.1.11.743-.351,1.643-.339s1.555.471,1.654.361c.049-.048-.054-.246-.34-.459a2.3,2.3,0,0,0-1.322-.424,2.206,2.206,0,0,0-1.309.406c-.278.209-.375.405-.325.455" transform="translate(-33.034 -76.707)" fill="#263238"/>
          <path id="Path_895" data-name="Path 895" d="M82.783,214.83a5.943,5.943,0,0,0-1.46-.281c-.23-.026-.446-.075-.484-.232a1.172,1.172,0,0,1,.161-.68l.7-1.743a30.136,30.136,0,0,0,1.58-4.562,30.18,30.18,0,0,0-1.944,4.424q-.351.918-.672,1.754a1.329,1.329,0,0,0-.13.9.576.576,0,0,0,.375.34,1.567,1.567,0,0,0,.39.059,5.876,5.876,0,0,0,1.482.019" transform="translate(-29.741 -76.603)" fill="#263238"/>
          <path id="Path_896" data-name="Path 896" d="M82.941,234.8a16.6,16.6,0,0,0,8.765-2.23s-2.172,4.457-8.695,3.771Z" transform="translate(-30.644 -85.93)" fill="#eb996e"/>
          <path id="Path_897" data-name="Path 897" d="M84.633,222.321a1.623,1.623,0,0,1,1.462-.586,1.482,1.482,0,0,1,1.016.561.938.938,0,0,1,.059,1.074,1.087,1.087,0,0,1-1.183.285,3.411,3.411,0,0,1-1.143-.7,1.019,1.019,0,0,1-.254-.269.3.3,0,0,1,.006-.335" transform="translate(-31.235 -81.921)" fill="#eb996e"/>
          <path id="Path_898" data-name="Path 898" d="M86.616,220.259c-.146-.01-.16.967-1,1.651s-1.884.564-1.893.7c-.015.061.23.193.669.21a2.434,2.434,0,0,0,1.579-.53,2.119,2.119,0,0,0,.779-1.385c.042-.408-.064-.651-.131-.646" transform="translate(-30.932 -81.379)" fill="#263238"/>
          <path id="Path_899" data-name="Path 899" d="M91.532,189.494c-2.387,3.4-8.708,6.906-13.234,7.718.528-.7,3.308-2.41,3.837-3.105-2.052,1.532-4.987,3.581-7.709,3.72a1.649,1.649,0,0,1-.936-.146,1.26,1.26,0,0,1-.476-1.025,27.2,27.2,0,0,1,.189-5.912,6.544,6.544,0,0,1,2.354-4.219c1.744-1.347,4.24-1.679,6.591-1.736a14.916,14.916,0,0,1,5.808.781,5.446,5.446,0,0,1,3.608,3.809" transform="translate(-26.945 -68.271)" fill="#263238"/>
          <path id="Path_900" data-name="Path 900" d="M106.027,205.189a37.053,37.053,0,0,0,.652-4.361c.192-3.367-.78-15.794-12.389-14.794l-.468,3.536s-1.794,12.1,5.715,12.191a13.5,13.5,0,0,0,3.816,7.114s1.969-.06,2.675-3.685" transform="translate(-34.595 -68.713)" fill="#263238"/>
          <path id="Path_901" data-name="Path 901" d="M102.806,210.967a3.893,3.893,0,0,1,2.1.159,2.716,2.716,0,0,1,1.521,1.412,2.841,2.841,0,0,1-.006,2.086,4.8,4.8,0,0,1-1.209,1.741,3.251,3.251,0,0,1-1.276.826,1.556,1.556,0,0,1-1.451-.242" transform="translate(-37.865 -77.919)" fill="#ffbe9d"/>
          <path id="Path_902" data-name="Path 902" d="M103.522,215.774c-.08.025.218.451.858.286a1.373,1.373,0,0,0,.8-.679,3.1,3.1,0,0,0,.361-1.154,1.826,1.826,0,0,0-.281-1.232,1.213,1.213,0,0,0-.91-.552c-.656-.022-.864.43-.791.444.052.054.31-.177.738-.069a1.178,1.178,0,0,1,.712,1.356c-.086.717-.37,1.371-.754,1.53-.4.2-.685.012-.729.069" transform="translate(-38.244 -78.492)" fill="#eb996e"/>
          <path id="Path_903" data-name="Path 903" d="M104.42,187.232a3.957,3.957,0,0,0,5.357-1.408,2.531,2.531,0,0,0,.367-1.893,2.606,2.606,0,0,0-1.95-1.69,3.985,3.985,0,0,0-3.661.879,3.5,3.5,0,0,0-.945,3.593,3.118,3.118,0,0,0,3.011,2.078" transform="translate(-38.211 -67.286)" fill="#263238"/>
          <path id="Path_904" data-name="Path 904" d="M104.444,220.082a9.191,9.191,0,0,0-1.8,1.556,3.107,3.107,0,0,0-.779,2.2,5.681,5.681,0,0,1,.146,1.323,4.421,4.421,0,0,1-.915,1.573,3.739,3.739,0,0,0,.59,4.382,6.067,6.067,0,0,0,4.289,1.743,3.672,3.672,0,0,0,4.168-4.135" transform="translate(-37.177 -81.314)" fill="#263238"/>
          <path id="Path_905" data-name="Path 905" d="M103.857,194.362a4.291,4.291,0,0,1-.684,1.19,13.78,13.78,0,0,1-4.992,4.291,4.323,4.323,0,0,1-1.279.5,29.818,29.818,0,0,0,3.822-2.59,29.881,29.881,0,0,0,3.134-3.388" transform="translate(-35.802 -71.811)" fill="#455a64"/>
          <path id="Path_906" data-name="Path 906" d="M106.635,194.261a5.17,5.17,0,0,1-.214,1.591,12.839,12.839,0,0,1-3.954,6.571,5.178,5.178,0,0,1-1.305.934,16.207,16.207,0,0,0,5.473-9.1" transform="translate(-37.376 -71.774)" fill="#455a64"/>
          <path id="Path_907" data-name="Path 907" d="M69.839,202.6c.1-.007.221,1.086.6,2.375s.846,2.283.76,2.329a7.463,7.463,0,0,1-1.358-4.7" transform="translate(-25.785 -74.853)" fill="#455a64"/>
          <path id="Path_908" data-name="Path 908" d="M112.454,225.7a1.824,1.824,0,0,0,.96.308,1.961,1.961,0,0,0,1.11-.35,2.242,2.242,0,0,0,.842-1.274,4.109,4.109,0,0,0,.012-1.9c-.136-.684-.4-1.392-.636-2.163a5.7,5.7,0,0,1-.28-2.541,14.261,14.261,0,0,1,1.036-2.5,3.279,3.279,0,0,0-1.915-4.068c-.361-.154-.735-.284-1.081-.473a2.2,2.2,0,0,1-.863-.774,3.631,3.631,0,0,1-.39-1.984,6.775,6.775,0,0,0-.065-1.6,2.62,2.62,0,0,0-.473-1.086,1.564,1.564,0,0,0-.851-.526.575.575,0,0,1,.275.021,1.315,1.315,0,0,1,.673.422,2.659,2.659,0,0,1,.555,1.127,6.647,6.647,0,0,1,.118,1.644,3.453,3.453,0,0,0,.388,1.837,3.507,3.507,0,0,0,1.832,1.114,3.575,3.575,0,0,1,2.108,4.455,15.065,15.065,0,0,0-1.029,2.449,5.467,5.467,0,0,0,.253,2.4c.221.759.482,1.482.612,2.2a4.291,4.291,0,0,1-.056,2.016,2.406,2.406,0,0,1-.963,1.363,2.05,2.05,0,0,1-1.217.325,1.485,1.485,0,0,1-.755-.247.679.679,0,0,1-.2-.189" transform="translate(-40.59 -75.652)" fill="#455a64"/>
          <path id="Path_909" data-name="Path 909" d="M106.752,230.947c.029-.018.083.2.388.341a1.035,1.035,0,0,0,1.223-.331,1.93,1.93,0,0,0-.1-1.974,8.268,8.268,0,0,1-1.256-2.452,1.776,1.776,0,0,1,.351-1.455c.308-.38.671-.634.907-.945a2.748,2.748,0,0,0,.439-2.013,7.8,7.8,0,0,0-.361-1.431,1.878,1.878,0,0,1-.146-.533,1.75,1.75,0,0,1,.265.487,6.14,6.14,0,0,1,.472,1.443,2.918,2.918,0,0,1-.428,2.23c-.268.362-.635.628-.895.962a1.461,1.461,0,0,0-.281,1.2,8.78,8.78,0,0,0,1.2,2.366,2.142,2.142,0,0,1,.021,2.249,1.13,1.13,0,0,1-.8.438,1.106,1.106,0,0,1-.67-.129c-.337-.207-.342-.465-.33-.455" transform="translate(-39.441 -81.341)" fill="#455a64"/>
          <path id="Path_910" data-name="Path 910" d="M66.455,225.311a2.8,2.8,0,0,1-.513-.513,6.188,6.188,0,0,1-1.1-1.658,3.313,3.313,0,0,1-.265-1.376,2.4,2.4,0,0,1,.556-1.528c.39-.453.957-.687,1.3-1.112a1.859,1.859,0,0,0,.261-1.622A6.907,6.907,0,0,0,66,215.837a5.729,5.729,0,0,1-.614-1.654,2.166,2.166,0,0,1,.325-1.592,5.534,5.534,0,0,1,.961-1,2.874,2.874,0,0,0,1.076-1.536,1.857,1.857,0,0,0-.027-.695c.008,0,.05.048.1.166a1.121,1.121,0,0,1,.058.549,2.865,2.865,0,0,1-1.045,1.687,5.59,5.59,0,0,0-.89.979,1.9,1.9,0,0,0-.255,1.395,5.612,5.612,0,0,0,.6,1.557,6.982,6.982,0,0,1,.726,1.741,2.167,2.167,0,0,1-.331,1.9c-.429.5-.993.723-1.323,1.11a2.138,2.138,0,0,0-.51,1.338,3.137,3.137,0,0,0,.208,1.279,7.033,7.033,0,0,0,.984,1.663,3.415,3.415,0,0,1,.414.593" transform="translate(-23.859 -77.352)" fill="#455a64"/>
          <path id="Path_911" data-name="Path 911" d="M107.171,189.942a10.411,10.411,0,0,0-1.537-1.67,10.4,10.4,0,0,0-2.025-1.025,3.77,3.77,0,0,1,3.562,2.695" transform="translate(-38.28 -69.17)" fill="#e8505b"/>
          <path id="Path_912" data-name="Path 912" d="M109.924,181.964c.033-.021.244.226.415.716a3.415,3.415,0,0,1-1.02,3.689c-.4.333-.706.436-.723.4s.231-.216.563-.569a3.749,3.749,0,0,0,.955-3.458,4.626,4.626,0,0,1-.191-.778" transform="translate(-40.123 -67.23)" fill="#455a64"/>
          <g id="Group_288" data-name="Group 288" transform="translate(37.783 188.785)" opacity="0.3">
            <g id="Group_287" data-name="Group 287">
              <g id="Group_286" data-name="Group 286" clip-path="url(#clip-path-10)">
                <path id="Path_913" data-name="Path 913" d="M59.923,302.921S75.588,317.8,84.9,315.1s12.068-9.68,12.068-9.68l.226-2.5-.933-.61-35.852-2.9Z" transform="translate(-59.923 -299.408)"/>
              </g>
            </g>
          </g>
          <path id="Path_914" data-name="Path 914" d="M45.224,278.341l3.021-7.747,10.829,6.8-9.649,14.878s-3.924-5.1-4.2-13.934" transform="translate(-16.709 -99.977)" fill="#eb996e"/>
          <path id="Path_915" data-name="Path 915" d="M57.131,246.726a38.684,38.684,0,0,1,11.563-3.39c1.894,3.791,7.862,4.272,11.476,1.685l3.047-2.059a11.121,11.121,0,0,1,1.277.052,16.275,16.275,0,0,1,14.415,12.961,32.471,32.471,0,0,1,.762,8.192c-.4,6.888-7.53,7.511-7.53,7.511s-.367,6.808-.849,12.308h0a10.269,10.269,0,0,1-6.239,8.9,25.338,25.338,0,0,1-7.953,2.451,26.709,26.709,0,0,1-23.7-8.205c1.082-6.561,2.117-15.056,2.043-15.437a.185.185,0,0,1,.012-.125l-7.071-6.276-4.007-3.365s8.794-13.051,12.751-15.2" transform="translate(-16.397 -89.766)" fill="#e8505b"/>
          <path id="Path_916" data-name="Path 916" d="M72.023,255.245a3.758,3.758,0,0,0-1.748-.484,2.874,2.874,0,0,0-1.8.625,7.59,7.59,0,0,0-.8.862,2.083,2.083,0,0,1-1.144.759,1.856,1.856,0,0,1-1.332-.357c-.364-.231-.674-.487-.993-.67a2.167,2.167,0,0,0-1.849-.161,2.442,2.442,0,0,0-1.075.742c-.2.246-.271.413-.3.4a.951.951,0,0,1,.194-.476,2.441,2.441,0,0,1,3.177-.769c.352.193.672.448,1.015.661a1.568,1.568,0,0,0,1.1.306,1.81,1.81,0,0,0,.963-.651,7.237,7.237,0,0,1,.852-.883,3.026,3.026,0,0,1,2-.621,2.883,2.883,0,0,1,1.351.385c.284.175.4.318.393.33" transform="translate(-22.529 -94.04)" fill="#fafafa"/>
          <path id="Path_917" data-name="Path 917" d="M83.436,268.963a3.749,3.749,0,0,0-1.5-1.016,2.873,2.873,0,0,0-1.908.016,7.62,7.62,0,0,0-1.036.561,2.088,2.088,0,0,1-1.327.354,1.858,1.858,0,0,1-1.148-.764c-.27-.336-.483-.677-.727-.952a2.165,2.165,0,0,0-1.7-.743,2.449,2.449,0,0,0-1.255.359c-.266.17-.388.3-.41.285s.077-.175.337-.389a2.441,2.441,0,0,1,3.255.287c.272.3.493.638.751.95a1.563,1.563,0,0,0,.947.643,1.808,1.808,0,0,0,1.121-.31,7.282,7.282,0,0,1,1.09-.564,3.024,3.024,0,0,1,2.09.049,2.874,2.874,0,0,1,1.156.8,1.064,1.064,0,0,1,.267.439" transform="translate(-26.757 -98.346)" fill="#fafafa"/>
          <path id="Path_918" data-name="Path 918" d="M109.082,248.514a3.756,3.756,0,0,0-1.811-.1,2.876,2.876,0,0,0-1.629.993,7.644,7.644,0,0,0-.6,1.013,2.085,2.085,0,0,1-.957.984,1.86,1.86,0,0,1-1.378-.067c-.4-.149-.761-.333-1.112-.445a2.168,2.168,0,0,0-1.842.234,2.454,2.454,0,0,0-.893.952,4.14,4.14,0,0,1-.206.455.962.962,0,0,1,.09-.507,2.44,2.44,0,0,1,2.942-1.423c.385.114.75.3,1.132.431a1.563,1.563,0,0,0,1.143.066,1.811,1.811,0,0,0,.8-.84,7.243,7.243,0,0,1,.646-1.044,3.024,3.024,0,0,1,1.818-1.03,2.878,2.878,0,0,1,1.4.091,1.073,1.073,0,0,1,.455.24" transform="translate(-36.445 -91.68)" fill="#fafafa"/>
          <path id="Path_919" data-name="Path 919" d="M98.584,263.68a3.215,3.215,0,0,0-1.132-.812A2.2,2.2,0,0,0,96,262.823a5.862,5.862,0,0,0-.811.4,1.646,1.646,0,0,1-1.059.23,1.468,1.468,0,0,1-.881-.643c-.2-.272-.349-.541-.524-.759a1.647,1.647,0,0,0-1.259-.628,2.287,2.287,0,0,0-1.306.412c-.013-.011.057-.14.265-.3a1.818,1.818,0,0,1,1.043-.343,1.851,1.851,0,0,1,1.491.668c.2.239.362.512.548.758a1.174,1.174,0,0,0,.685.514c.58.1,1.112-.42,1.717-.593a2.348,2.348,0,0,1,1.629.119c.876.4,1.078,1.033,1.045,1.027" transform="translate(-33.311 -96.501)" fill="#fafafa"/>
          <path id="Path_920" data-name="Path 920" d="M72.829,277.5a3.215,3.215,0,0,0-1.132-.812,2.2,2.2,0,0,0-1.451-.045,5.862,5.862,0,0,0-.811.4,1.646,1.646,0,0,1-1.059.23,1.468,1.468,0,0,1-.881-.643c-.2-.272-.349-.541-.524-.759a1.648,1.648,0,0,0-1.259-.628,2.288,2.288,0,0,0-1.306.412c-.013-.011.057-.14.265-.3a1.817,1.817,0,0,1,1.043-.343,1.851,1.851,0,0,1,1.491.668c.2.239.362.512.548.758a1.174,1.174,0,0,0,.685.514c.58.1,1.112-.42,1.717-.593a2.348,2.348,0,0,1,1.629.119c.876.4,1.078,1.033,1.045,1.027" transform="translate(-23.796 -101.607)" fill="#fafafa"/>
          <path id="Path_921" data-name="Path 921" d="M96.819,278.9a3.219,3.219,0,0,0-1.334-.4,2.2,2.2,0,0,0-1.388.426,6.016,6.016,0,0,0-.64.638,1.64,1.64,0,0,1-.927.56,1.466,1.466,0,0,1-1.042-.323c-.275-.192-.505-.4-.742-.549a1.648,1.648,0,0,0-1.395-.187,2.29,2.29,0,0,0-1.1.812c-.016-.006.009-.151.153-.37a1.82,1.82,0,0,1,.876-.663,1.852,1.852,0,0,1,1.627.15c.269.161.508.368.764.54a1.174,1.174,0,0,0,.815.264c.582-.091.916-.757,1.433-1.116a2.351,2.351,0,0,1,1.58-.415,1.7,1.7,0,0,1,1.32.633" transform="translate(-32.604 -102.807)" fill="#fafafa"/>
          <path id="Path_922" data-name="Path 922" d="M88.866,289.879a3.22,3.22,0,0,0-1.334-.4,2.2,2.2,0,0,0-1.388.426,6.015,6.015,0,0,0-.64.637,1.64,1.64,0,0,1-.927.561,1.466,1.466,0,0,1-1.042-.323c-.275-.192-.505-.4-.741-.549a1.648,1.648,0,0,0-1.395-.187,2.289,2.289,0,0,0-1.1.812c-.016-.006.009-.151.153-.37a1.82,1.82,0,0,1,.876-.663,1.852,1.852,0,0,1,1.627.15c.269.161.508.368.764.54a1.174,1.174,0,0,0,.815.264c.582-.091.916-.757,1.433-1.116a2.351,2.351,0,0,1,1.58-.415,1.7,1.7,0,0,1,1.32.633" transform="translate(-29.666 -106.864)" fill="#fafafa"/>
          <path id="Path_923" data-name="Path 923" d="M72.142,316.114a3.217,3.217,0,0,0-1.144-.8,2.2,2.2,0,0,0-1.451-.025,5.9,5.9,0,0,0-.806.407,1.642,1.642,0,0,1-1.055.245,1.471,1.471,0,0,1-.89-.63c-.2-.269-.356-.536-.535-.752a1.647,1.647,0,0,0-1.268-.61,2.29,2.29,0,0,0-1.3.431c-.013-.011.056-.141.261-.3a1.818,1.818,0,0,1,1.038-.358,1.853,1.853,0,0,1,1.5.647c.206.236.369.507.559.751a1.172,1.172,0,0,0,.692.5c.581.094,1.106-.435,1.709-.617a2.349,2.349,0,0,1,1.631.1c.882.391,1.093,1.018,1.059,1.011" transform="translate(-23.532 -115.911)" fill="#fafafa"/>
          <path id="Path_924" data-name="Path 924" d="M91.715,322.925a3.226,3.226,0,0,0-1.328-.42,2.205,2.205,0,0,0-1.393.408,5.956,5.956,0,0,0-.649.628,1.644,1.644,0,0,1-.935.548,1.47,1.47,0,0,1-1.037-.338c-.272-.2-.5-.405-.734-.559a1.645,1.645,0,0,0-1.392-.206,2.29,2.29,0,0,0-1.113.8c-.016-.006.011-.151.158-.368a1.816,1.816,0,0,1,.885-.65,1.85,1.85,0,0,1,1.625.172c.267.165.5.375.757.551a1.175,1.175,0,0,0,.811.275c.583-.083.927-.744,1.448-1.1a2.353,2.353,0,0,1,1.586-.393,1.7,1.7,0,0,1,1.311.651" transform="translate(-30.714 -119.066)" fill="#fafafa"/>
          <path id="Path_925" data-name="Path 925" d="M30.854,240.616C31.237,241.067,45.1,259.6,45.1,259.6l-1.951,1.106-14.225-18.3Z" transform="translate(-10.686 -88.901)" fill="#263238"/>
          <path id="Path_926" data-name="Path 926" d="M87.551,258.965s-13,22.423-13.881,22.836c-1.731.812-21.683-16.429-23.586-18.079-.262-.351-.8-1.09-1.866-2.56,0,0-1.574-7.2-3.254-6.65s.921,3.66-.173,6.4-6.1-3.791-6.305-4.377l-1.292-1.688s-1.355,3.841-1.263,5.445c.294,5.139,5.156,11.251,5.156,11.251S60.845,296.3,75.8,297.137c4.308.242,12.536-12.16,17.654-21.326,3.091-5.535,1.656-11.158-3.466-14.892Z" transform="translate(-13.274 -94.024)" fill="#ffbe9d"/>
          <path id="Path_927" data-name="Path 927" d="M38.723,262.915a11.837,11.837,0,0,1-1.88-3.8c.053-.02.426.851.945,1.9s.983,1.872.934,1.9" transform="translate(-13.611 -95.736)" fill="#eb996e"/>
          <path id="Path_928" data-name="Path 928" d="M109.447,251.7c-.514.308-12.6,22.754-12.6,22.754l15.563,12.191a180.15,180.15,0,0,0,6.185-18.082,25.971,25.971,0,0,0-.538-10.35c-1.163-3.224-2.916-2.421-5.541-4.31Z" transform="translate(-35.78 -92.996)" fill="#e8505b"/>
          <g id="Group_291" data-name="Group 291" transform="translate(60.854 158.054)" opacity="0.7">
            <g id="Group_290" data-name="Group 290">
              <g id="Group_289" data-name="Group 289" clip-path="url(#clip-path-11)">
                <path id="Path_929" data-name="Path 929" d="M114.438,251.318c-.009.014-.153-.086-.444-.233a2.62,2.62,0,0,0-1.368-.287,3.737,3.737,0,0,0-2.03.848,10.083,10.083,0,0,0-2.026,2.182c-.658.9-1.2,1.989-1.864,3.129l-2.079,3.651-4.783,8.356-2.984,5.187-.04-.2,10.53,8.322,3.056,2.453.81.668a1.714,1.714,0,0,1,.269.247,1.8,1.8,0,0,1-.3-.2l-.843-.627-3.113-2.379-10.6-8.231-.108-.084.069-.12c.941-1.643,1.943-3.39,2.974-5.19l4.8-8.341,2.1-3.636a36,36,0,0,1,1.916-3.135,10.09,10.09,0,0,1,2.1-2.194,3.818,3.818,0,0,1,2.135-.829,2.581,2.581,0,0,1,1.4.356,2.393,2.393,0,0,1,.315.208c.068.05.1.079.1.083" transform="translate(-96.513 -250.67)"/>
              </g>
            </g>
          </g>
          <path id="Path_930" data-name="Path 930" d="M112.634,283.618a3.223,3.223,0,0,0-1.132-.811,2.2,2.2,0,0,0-1.451-.045,5.859,5.859,0,0,0-.812.4,1.646,1.646,0,0,1-1.059.23,1.467,1.467,0,0,1-.881-.643c-.2-.271-.349-.541-.525-.759a1.646,1.646,0,0,0-1.259-.628,2.287,2.287,0,0,0-1.306.412c-.013-.011.057-.14.265-.3a1.817,1.817,0,0,1,1.043-.343,1.851,1.851,0,0,1,1.491.668c.2.239.362.512.548.759a1.175,1.175,0,0,0,.685.513c.58.1,1.112-.42,1.717-.593a2.352,2.352,0,0,1,1.629.119c.876.4,1.078,1.033,1.045,1.027" transform="translate(-38.502 -103.867)" fill="#fafafa"/>
          <path id="Path_931" data-name="Path 931" d="M124.392,277.908a3.211,3.211,0,0,0-.871-1.086,2.2,2.2,0,0,0-1.385-.435,5.929,5.929,0,0,0-.889.162,1.64,1.64,0,0,1-1.081-.064,1.469,1.469,0,0,1-.675-.857c-.117-.315-.19-.615-.3-.873a1.646,1.646,0,0,0-1.043-.944,2.3,2.3,0,0,0-1.368.044c-.01-.014.093-.119.336-.218a1.811,1.811,0,0,1,1.1-.05,1.851,1.851,0,0,1,1.256,1.046c.13.285.21.591.323.878a1.175,1.175,0,0,0,.522.679c.531.254,1.183-.1,1.813-.108a2.352,2.352,0,0,1,1.537.554,1.7,1.7,0,0,1,.729,1.27" transform="translate(-43.147 -101.061)" fill="#fafafa"/>
          <path id="Path_932" data-name="Path 932" d="M124.972,263.192a3.211,3.211,0,0,0-.871-1.086,2.2,2.2,0,0,0-1.385-.435,5.933,5.933,0,0,0-.889.162,1.641,1.641,0,0,1-1.081-.064,1.469,1.469,0,0,1-.675-.857c-.117-.315-.19-.615-.3-.873a1.646,1.646,0,0,0-1.043-.944,2.3,2.3,0,0,0-1.368.044c-.01-.014.093-.118.336-.217a1.811,1.811,0,0,1,1.1-.05,1.851,1.851,0,0,1,1.256,1.046c.13.285.21.591.323.878a1.175,1.175,0,0,0,.522.679c.531.254,1.184-.1,1.813-.108a2.353,2.353,0,0,1,1.537.554,1.7,1.7,0,0,1,.729,1.27" transform="translate(-43.361 -95.624)" fill="#fafafa"/>
          <path id="Path_933" data-name="Path 933" d="M119.51,297.022a3.2,3.2,0,0,0-.871-1.086,2.2,2.2,0,0,0-1.385-.435,5.938,5.938,0,0,0-.889.162,1.641,1.641,0,0,1-1.081-.064,1.469,1.469,0,0,1-.675-.857c-.117-.315-.19-.615-.3-.872a1.645,1.645,0,0,0-1.043-.945,2.3,2.3,0,0,0-1.368.044c-.01-.014.093-.119.336-.217a1.813,1.813,0,0,1,1.1-.05,1.852,1.852,0,0,1,1.255,1.046c.13.285.21.59.323.878a1.176,1.176,0,0,0,.522.679c.531.254,1.183-.1,1.813-.108a2.351,2.351,0,0,1,1.537.554,1.7,1.7,0,0,1,.729,1.27" transform="translate(-41.343 -108.123)" fill="#fafafa"/>
        </g>
      </g>
    </g>
  </g>
</svg>
