<svg xmlns="http://www.w3.org/2000/svg" width="35" height="35" viewBox="0 0 35 35">
    <path id="ic_assignment_24px" d="M34.111,4.5H25.983A5.846,5.846,0,0,0,20.5,1a5.846,5.846,0,0,0-5.483,3.5H6.889A3.721,3.721,0,0,0,3,8V32.5A3.721,3.721,0,0,0,6.889,36H34.111A3.721,3.721,0,0,0,38,32.5V8A3.721,3.721,0,0,0,34.111,4.5ZM20.5,4.5a1.86,1.86,0,0,1,1.944,1.75,1.955,1.955,0,0,1-3.889,0A1.86,1.86,0,0,1,20.5,4.5ZM24.389,29H10.778V25.5H24.389Zm5.833-7H10.778V18.5H30.222Zm0-7H10.778V11.5H30.222Z" transform="translate(-3 -1)" fill="#e4e4e4"/>
  </svg>
  