<svg xmlns="http://www.w3.org/2000/svg" width="31.85" height="35.389" viewBox="0 0 31.85 35.389">
  <path id="assignment-nav" d="M31.311,4.539h-7.4a5.287,5.287,0,0,0-9.98,0h-7.4A3.549,3.549,0,0,0,3,8.078V32.85a3.549,3.549,0,0,0,3.539,3.539H31.311A3.549,3.549,0,0,0,34.85,32.85V8.078A3.549,3.549,0,0,0,31.311,4.539Zm-12.386,0a1.769,1.769,0,1,1-1.769,1.769A1.775,1.775,0,0,1,18.925,4.539Zm3.539,24.772H10.078V25.772H22.464Zm5.308-7.078H10.078V18.695H27.772Zm0-7.078H10.078V11.617H27.772Z" transform="translate(-3 -1)" fill="#0d72b9"/>
</svg>
