<svg xmlns="http://www.w3.org/2000/svg" width="37.617" height="41.797" viewBox="0 0 37.617 41.797">
  <path id="folder" d="M36.438,5.18H27.7a6.245,6.245,0,0,0-11.787,0H7.18A4.192,4.192,0,0,0,3,9.359V38.617A4.192,4.192,0,0,0,7.18,42.8H36.438a4.192,4.192,0,0,0,4.18-4.18V9.359A4.192,4.192,0,0,0,36.438,5.18Zm-14.629,0a2.09,2.09,0,1,1-2.09,2.09A2.1,2.1,0,0,1,21.809,5.18Zm4.18,29.258H11.359v-4.18H25.988Zm6.27-8.359h-20.9V21.9h20.9Zm0-8.359h-20.9v-4.18h20.9Z" transform="translate(-3 -1)" fill="#afc4e4"/>
</svg>
