<svg xmlns="http://www.w3.org/2000/svg" width="19.574" height="21.749" viewBox="0 0 19.574 21.749">
  <path id="folder-fill" d="M20.4,3.175H15.854a3.249,3.249,0,0,0-6.133,0H5.175A2.181,2.181,0,0,0,3,5.35V20.574a2.181,2.181,0,0,0,2.175,2.175H20.4a2.181,2.181,0,0,0,2.175-2.175V5.35A2.181,2.181,0,0,0,20.4,3.175Zm-7.612,0A1.087,1.087,0,1,1,11.7,4.262,1.091,1.091,0,0,1,12.787,3.175ZM14.962,18.4H7.35V16.224h7.612Zm3.262-4.35H7.35V11.875H18.224Zm0-4.35H7.35V7.525H18.224Z" transform="translate(-3 -1)" fill="#0d72b9"/>
</svg>
