<svg xmlns="http://www.w3.org/2000/svg" width="17.958" height="24.692" viewBox="0 0 17.958 24.692">
  <path id="id-field" d="M12.979,21.2a2.245,2.245,0,1,0,2.245,2.245A2.251,2.251,0,0,0,12.979,21.2ZM6.245,1A2.245,2.245,0,1,0,8.49,3.245,2.251,2.251,0,0,0,6.245,1Zm0,6.734A2.245,2.245,0,1,0,8.49,9.979,2.251,2.251,0,0,0,6.245,7.734Zm0,6.734A2.245,2.245,0,1,0,8.49,16.713,2.251,2.251,0,0,0,6.245,14.469ZM19.713,5.49a2.245,2.245,0,1,0-2.245-2.245A2.251,2.251,0,0,0,19.713,5.49Zm-6.734,8.979a2.245,2.245,0,1,0,2.245,2.245A2.251,2.251,0,0,0,12.979,14.469Zm6.734,0a2.245,2.245,0,1,0,2.245,2.245A2.251,2.251,0,0,0,19.713,14.469Zm0-6.734a2.245,2.245,0,1,0,2.245,2.245A2.251,2.251,0,0,0,19.713,7.734Zm-6.734,0a2.245,2.245,0,1,0,2.245,2.245A2.251,2.251,0,0,0,12.979,7.734Zm0-6.734a2.245,2.245,0,1,0,2.245,2.245A2.251,2.251,0,0,0,12.979,1Z" transform="translate(-4 -1)" fill="#e4e4e4"/>
</svg>
