<svg xmlns="http://www.w3.org/2000/svg" width="20.127" height="27.675" viewBox="0 0 20.127 27.675">
  <path id="id" d="M14.064,23.643a2.516,2.516,0,1,0,2.516,2.516A2.523,2.523,0,0,0,14.064,23.643ZM6.516,1A2.516,2.516,0,1,0,9.032,3.516,2.523,2.523,0,0,0,6.516,1Zm0,7.548a2.516,2.516,0,1,0,2.516,2.516A2.523,2.523,0,0,0,6.516,8.548Zm0,7.548a2.516,2.516,0,1,0,2.516,2.516A2.523,2.523,0,0,0,6.516,16.1Zm15.1-10.064A2.516,2.516,0,1,0,19.1,3.516,2.523,2.523,0,0,0,21.611,6.032ZM14.064,16.1a2.516,2.516,0,1,0,2.516,2.516A2.523,2.523,0,0,0,14.064,16.1Zm7.548,0a2.516,2.516,0,1,0,2.516,2.516A2.523,2.523,0,0,0,21.611,16.1Zm0-7.548a2.516,2.516,0,1,0,2.516,2.516A2.523,2.523,0,0,0,21.611,8.548Zm-7.548,0a2.516,2.516,0,1,0,2.516,2.516A2.523,2.523,0,0,0,14.064,8.548Zm0-7.548A2.516,2.516,0,1,0,16.58,3.516,2.523,2.523,0,0,0,14.064,1Z" transform="translate(-4 -1)" fill="#fff"/>
</svg>
