<svg id="loading" xmlns="http://www.w3.org/2000/svg" width="164.531" height="164.531" viewBox="0 0 164.531 164.531">
  <path id="Path_1068" data-name="Path 1068" d="M853.464,701.245a54.06,54.06,0,0,1,10.774-25.925l-20.12-20.12A82.209,82.209,0,0,0,825,701.269Z" transform="translate(-825 -626.059)" fill="#005fad" opacity="0.8"/>
  <path id="Path_1069" data-name="Path 1069" d="M1015.06,593.21v28.464A53.958,53.958,0,0,1,1041,632.448l20.12-20.12A82.209,82.209,0,0,0,1015.06,593.21Z" transform="translate(-925.715 -593.21)" fill="#005fad" opacity="0.1"/>
  <path id="Path_1070" data-name="Path 1070" d="M864.238,809.2a54.061,54.061,0,0,1-10.774-25.944H825a82.223,82.223,0,0,0,19.118,46.069Z" transform="translate(-825 -693.92)" fill="#005fad" opacity="0.7"/>
  <path id="Path_1071" data-name="Path 1071" d="M907.069,632.448a53.957,53.957,0,0,1,25.939-10.774V593.21a82.209,82.209,0,0,0-46.069,19.118Z" transform="translate(-857.823 -593.21)" fill="#005fad"/>
  <path id="Path_1072" data-name="Path 1072" d="M1102.3,783.255A54.061,54.061,0,0,1,1091.53,809.2l20.12,20.12a82.222,82.222,0,0,0,19.118-46.069Z" transform="translate(-966.237 -693.914)" fill="#005fad" opacity="0.3"/>
  <path id="Path_1073" data-name="Path 1073" d="M1091.53,675.309a54.059,54.059,0,0,1,10.774,25.939h28.464a82.209,82.209,0,0,0-19.119-46.069Z" transform="translate(-966.237 -626.049)" fill="#005fad" opacity="0.2"/>
  <path id="Path_1074" data-name="Path 1074" d="M933.04,870.51A53.994,53.994,0,0,1,907.1,859.74L887,879.86a82.209,82.209,0,0,0,46.069,19.118Z" transform="translate(-857.855 -734.447)" fill="#005fad" opacity="0.5"/>
  <path id="Path_1075" data-name="Path 1075" d="M1041,859.74a54,54,0,0,1-25.94,10.77v28.469a82.209,82.209,0,0,0,46.069-19.119Z" transform="translate(-925.715 -734.447)" fill="#005fad" opacity="0.4"/>
</svg>
