<?xml version="1.0" encoding="utf-8"?>
<!-- Svg Vector Icons : http://www.onlinewebfonts.com/icon -->
<!DOCTYPE svg PUBLIC "-//W3C//DTD SVG 1.1//EN" "http://www.w3.org/Graphics/SVG/1.1/DTD/svg11.dtd">
<svg version="1.1" xmlns="http://www.w3.org/2000/svg" xmlns:xlink="http://www.w3.org/1999/xlink" x="0px" y="0px" viewBox="0 0 1000 1000" enable-background="new 0 0 1000 1000" xml:space="preserve">
<metadata> Svg Vector Icons : http://www.onlinewebfonts.com/icon </metadata>
<g><g transform="translate(0.000000,511.000000) scale(0.100000,-0.100000)"><path d="M5012.8,3153.7l-2066.5-871.3h-973.6c-911.8,0-982.1-2.1-1110-42.6c-336.6-102.3-617.8-385.6-720.1-722.2c-38.3-121.4-42.6-198.1-42.6-745.7c0-343,10.7-651.9,23.4-705.2C210.8-310.4,573-661.9,958.6-742.9l115-23.4L692.3-2102.1c-404.8-1416.7-409-1438-319.6-1557.4c21.3-29.8,72.4-76.7,110.8-102.3c70.3-49,74.6-49,924.6-49c811.7,0,856.4,2.1,918.2,42.6c34.1,21.3,78.8,61.8,98,89.5c21.3,25.6,213,664.7,428.2,1416.7c215.2,754.2,398.4,1369.9,409,1369.9c10.7,0,862.8-355.8,1896.1-790.4C6188.8-2117,7062.3-2481.3,7096.4-2492c134.2-38.3,330.2,66.1,387.7,208.8c23.4,55.4,29.8,264.2,29.8,1018.3v948h223.7c259.9,0,340.9,25.6,464.4,144.9C8374.6-5.7,8376.8-1.5,8383.1,712.2c8.5,754.2-2.1,809.6-161.9,971.5c-132.1,132.1-251.4,172.6-507,172.6H7516l-6.4,977.9c-6.4,954.5-8.5,980-51.1,1039.7c-23.4,32-76.7,80.9-115,108.6C7198.6,4080.4,7249.7,4097.5,5012.8,3153.7z M6847.1-1673.9c-4.3-4.3-788.3,321.7-1742.7,724.3L3370.2-220.9v986.4v986.4l1736.3,730.7l1736.3,730.8l6.4-2439.4C6851.4-568.2,6851.4-1669.6,6847.1-1673.9z M2699.1,769.8v-873.5h-815.9c-816,0-818.1,0-911.8,49c-61.8,34.1-115,85.2-157.7,153.4l-63.9,102.3L743.4,693c-8.5,600.8,4.2,681.7,132.1,811.7c55.4,53.3,123.6,98,174.7,112.9c49,12.8,402.6,21.3,867.1,23.4l781.9,2.1V769.8z M7727,759.1V322.4h-106.5h-106.5v436.7v436.7h106.5H7727V759.1z M2592.6-789.7c-2.1-14.9-153.4-553.9-336.6-1199.4l-336.6-1171.7l-419.7-6.4c-277-4.3-419.7,2.1-419.7,17c0,25.6,660.4,2345.6,675.4,2371.2c4.3,8.5,196,14.9,424,14.9C2496.7-764.2,2592.6-770.6,2592.6-789.7z"/><path d="M9295,3976.1c-142.7-98-931-803.2-973.6-871.4c-108.7-178.9,2.1-434.6,206.6-473c161.9-29.8,198.1-8.5,720.1,449.5c315.3,274.8,507.1,458,524.1,498.5c40.5,98,17,268.4-44.7,334.5C9608.1,4042.1,9429.2,4067.7,9295,3976.1z"/><path d="M8770.9,1042.4C8609,931.7,8560,771.9,8645.2,620.6c91.6-164.1,144.9-181.1,583.8-187.5c364.3-6.4,387.8-4.3,479.4,42.6c245,125.7,257.8,406.9,23.4,564.6c-68.2,46.9-91.6,49-481.5,49S8836.9,1087.2,8770.9,1042.4z"/><path d="M8457.7-1126.3c-53.2-23.4-108.6-70.3-134.2-110.8c-46.9-78.8-57.5-238.6-19.2-323.8c38.4-83.1,969.3-888.4,1065.2-922.5c272.7-93.8,522,200.3,385.6,455.9c-44.8,83.1-945.9,875.6-1041.8,913.9C8621.8-1073.1,8564.2-1077.3,8457.7-1126.3z"/></g></g>
</svg>