<svg xmlns="http://www.w3.org/2000/svg" width="34.8" height="34.032" viewBox="0 0 34.8 34.032">
  <path id="notifications-nav" d="M11.716,5.258l-2.5-2.5a18.194,18.194,0,0,0-7.19,13.7H5.521A14.74,14.74,0,0,1,11.716,5.258Zm21.624,11.2H36.83a18.305,18.305,0,0,0-7.19-13.7l-2.478,2.5A14.826,14.826,0,0,1,33.34,16.462Zm-3.438.873c0-5.358-2.862-9.843-7.854-11.03V5.118a2.618,2.618,0,0,0-5.236,0V6.3C11.8,7.491,8.959,11.959,8.959,17.335v8.726L5.468,29.551V31.3H33.392V29.551L29.9,26.061ZM19.43,36.532a3.057,3.057,0,0,0,.7-.07A3.541,3.541,0,0,0,22.641,34.4a3.5,3.5,0,0,0,.262-1.361H15.922a3.516,3.516,0,0,0,3.508,3.491Z" transform="translate(-2.03 -2.5)" fill="#005fad"/>
</svg>
