<svg xmlns="http://www.w3.org/2000/svg" width="48.992" height="49.005" viewBox="0 0 48.992 49.005">
  <g id="qr-nav" transform="translate(-149.502 -121.556)">
    <g id="Group_461" data-name="Group 461" transform="translate(181.544 153.584)">
      <g id="Group_460" data-name="Group 460">
        <g id="Group_459" data-name="Group 459">
          <g id="Group_458" data-name="Group 458">
            <path id="Path_982" data-name="Path 982" d="M188.679,160.751l-16.95,0V143.78l16.95-.007v16.978ZM184.9,147.564H175.5v9.4H184.9v-9.4Z" transform="translate(-171.729 -143.773)" fill="#e4e4e4"/>
          </g>
        </g>
      </g>
    </g>
    <g id="Group_465" data-name="Group 465" transform="translate(181.544 121.556)">
      <g id="Group_464" data-name="Group 464">
        <g id="Group_463" data-name="Group 463">
          <g id="Group_462" data-name="Group 462">
            <path id="Path_983" data-name="Path 983" d="M188.679,138.5l-16.95.014v-16.96h16.95V138.5ZM175.5,134.736h9.4v-9.4h-9.4v9.4Z" transform="translate(-171.729 -121.556)" fill="#e4e4e4"/>
          </g>
        </g>
      </g>
    </g>
    <g id="Group_468" data-name="Group 468" transform="translate(194.734 142.296)">
      <g id="Group_467" data-name="Group 467">
        <g id="Group_466" data-name="Group 466">
          <path id="Path_984" data-name="Path 984" d="M184.639,139.706l-3.752.009,0,0-.011-3.775h3.76v3.763Z" transform="translate(-180.879 -135.943)" fill="#e4e4e4"/>
        </g>
      </g>
    </g>
    <g id="Group_472" data-name="Group 472" transform="translate(149.503 142.301)">
      <g id="Group_471" data-name="Group 471">
        <g id="Group_470" data-name="Group 470">
          <g id="Group_469" data-name="Group 469">
            <path id="Path_985" data-name="Path 985" d="M157.057,147.216l-.02-7.514-3.8-.011,0,0,.027-3.747H160.8v3.762h3.77l0,0,0,7.526h3.757v13.194h-3.752v3.768h-7.535v-3.75l-3.791,0,0,0,.013-1.893h-3.758v-3.763l3.729.009h0l.019-3.788H149.5v-3.775l7.556-.021-.012,3.794,3.75.028.008,3.734h3.758v-3.751l-3.769.022.006-3.805-3.742-.019Z" transform="translate(-149.503 -135.946)" fill="#e4e4e4"/>
          </g>
        </g>
      </g>
    </g>
    <g id="Group_475" data-name="Group 475" transform="translate(170.239 125.305)">
      <g id="Group_474" data-name="Group 474">
        <g id="Group_473" data-name="Group 473">
          <path id="Path_986" data-name="Path 986" d="M167.625,124.156l.013,3.789h3.769v16.964h5.649l-.005,0,.009,3.761h-5.644v9.416h-3.789l0,0,.01-3.752h-3.753V148.68h3.74v-3.766h-3.742v-9.422h3.742v-3.773h-3.741v-7.545l3.741-.015,0,0Z" transform="translate(-163.887 -124.156)" fill="#e4e4e4"/>
        </g>
      </g>
    </g>
    <g id="Group_480" data-name="Group 480" transform="translate(149.502 121.566)">
      <g id="Group_479" data-name="Group 479">
        <g id="Group_478" data-name="Group 478">
          <g id="Group_477" data-name="Group 477">
            <g id="Group_476" data-name="Group 476">
              <path id="Path_987" data-name="Path 987" d="M149.5,138.513v-16.95h16.956l0,16.758-16.96.192Zm13.173-3.778v-9.406h-9.4v9.406Z" transform="translate(-149.502 -121.563)" fill="#e4e4e4"/>
            </g>
          </g>
        </g>
      </g>
    </g>
    <g id="Group_483" data-name="Group 483" transform="translate(183.405 142.301)">
      <g id="Group_482" data-name="Group 482">
        <g id="Group_481" data-name="Group 481">
          <path id="Path_988" data-name="Path 988" d="M184.357,139.713l-.014,3.74h-7.536V139.7h-3.788l.005,0,.006-3.757h7.541V139.7l3.789.012,0,0Z" transform="translate(-173.019 -135.946)" fill="#e4e4e4"/>
        </g>
      </g>
    </g>
    <g id="Group_486" data-name="Group 486" transform="translate(170.242 159.23)">
      <g id="Group_485" data-name="Group 485">
        <g id="Group_484" data-name="Group 484">
          <path id="Path_989" data-name="Path 989" d="M167.627,147.69l.011,3.777H171.4v3.773h-3.754v3.766h-3.753V147.7l3.742-.01,0,0Z" transform="translate(-163.889 -147.69)" fill="#e4e4e4"/>
        </g>
      </g>
    </g>
    <g id="Group_489" data-name="Group 489" transform="translate(173.978 121.569)">
      <g id="Group_488" data-name="Group 488">
        <g id="Group_487" data-name="Group 487">
          <path id="Path_990" data-name="Path 990" d="M166.484,125.3l.012-3.739h3.759v3.746l-3.775-.011,0,0Z" transform="translate(-166.48 -121.565)" fill="#e4e4e4"/>
        </g>
      </g>
    </g>
    <g id="Group_492" data-name="Group 492" transform="translate(164.566 142.297)">
      <g id="Group_491" data-name="Group 491">
        <g id="Group_490" data-name="Group 490">
          <path id="Path_991" data-name="Path 991" d="M159.957,139.71v-3.766h3.759V139.7h-3.764l0,0Z" transform="translate(-159.952 -135.944)" fill="#e4e4e4"/>
        </g>
      </g>
    </g>
    <g id="Group_495" data-name="Group 495" transform="translate(149.502 146.046)">
      <g id="Group_494" data-name="Group 494">
        <g id="Group_493" data-name="Group 493">
          <path id="Path_992" data-name="Path 992" d="M153.234,138.544l.023,3.763H149.5v-3.749l3.735-.01,0,0Z" transform="translate(-149.502 -138.544)" fill="#e4e4e4"/>
        </g>
      </g>
    </g>
    <g id="Group_498" data-name="Group 498" transform="translate(149.503 166.794)">
      <g id="Group_497" data-name="Group 497">
        <g id="Group_496" data-name="Group 496">
          <path id="Path_993" data-name="Path 993" d="M153.248,152.941l.008,3.748H149.5v-3.753l3.748.008,0,0Z" transform="translate(-149.503 -152.937)" fill="#e4e4e4"/>
        </g>
      </g>
    </g>
    <g id="Group_501" data-name="Group 501" transform="translate(187.197 159.252)">
      <g id="Group_500" data-name="Group 500">
        <g id="Group_499" data-name="Group 499">
          <path id="Path_994" data-name="Path 994" d="M175.65,147.705h5.632v5.638H175.65v-5.638Z" transform="translate(-175.65 -147.705)" fill="#e4e4e4"/>
        </g>
      </g>
    </g>
    <g id="Group_504" data-name="Group 504" transform="translate(187.183 127.22)">
      <g id="Group_503" data-name="Group 503">
        <g id="Group_502" data-name="Group 502">
          <path id="Path_995" data-name="Path 995" d="M175.641,125.485h5.645v5.645l-5.467,0-.177-5.649Z" transform="translate(-175.641 -125.485)" fill="#e4e4e4"/>
        </g>
      </g>
    </g>
  </g>
</svg>
