<svg xmlns="http://www.w3.org/2000/svg" width="27.272" height="27.279" viewBox="0 0 27.272 27.279">
  <g id="qr" transform="translate(-149.502 -121.556)">
    <g id="Group_461" data-name="Group 461" transform="translate(167.338 139.384)">
      <g id="Group_460" data-name="Group 460">
        <g id="Group_459" data-name="Group 459">
          <g id="Group_458" data-name="Group 458">
            <path id="Path_982" data-name="Path 982" d="M181.164,153.224l-9.435,0v-9.444l9.435,0v9.451Zm-2.1-7.34h-5.236v5.232h5.236v-5.232Z" transform="translate(-171.729 -143.773)" fill="#fff"/>
          </g>
        </g>
      </g>
    </g>
    <g id="Group_465" data-name="Group 465" transform="translate(167.338 121.556)">
      <g id="Group_464" data-name="Group 464">
        <g id="Group_463" data-name="Group 463">
          <g id="Group_462" data-name="Group 462">
            <path id="Path_983" data-name="Path 983" d="M181.164,130.989l-9.435.008v-9.441h9.435v9.433Zm-7.338-2.1h5.234v-5.234h-5.234v5.234Z" transform="translate(-171.729 -121.556)" fill="#fff"/>
          </g>
        </g>
      </g>
    </g>
    <g id="Group_468" data-name="Group 468" transform="translate(174.681 133.101)">
      <g id="Group_467" data-name="Group 467">
        <g id="Group_466" data-name="Group 466">
          <path id="Path_984" data-name="Path 984" d="M182.972,138.037l-2.089.005,0,0-.006-2.1h2.093v2.094Z" transform="translate(-180.879 -135.943)" fill="#fff"/>
        </g>
      </g>
    </g>
    <g id="Group_472" data-name="Group 472" transform="translate(149.502 133.104)">
      <g id="Group_471" data-name="Group 471">
        <g id="Group_470" data-name="Group 470">
          <g id="Group_469" data-name="Group 469">
            <path id="Path_985" data-name="Path 985" d="M153.708,142.22l-.011-4.183-2.117-.006h0l.015-2.086h4.2v2.094h2.1l0,0,0,4.189h2.091v7.345h-2.089v2.1H153.7v-2.087h-2.11l0,0,.007-1.054H149.5v-2.095l2.076,0h0l.011-2.109H149.5v-2.1l4.206-.012-.007,2.112,2.088.015,0,2.078h2.092v-2.088l-2.1.012,0-2.118-2.083-.011Z" transform="translate(-149.503 -135.946)" fill="#fff"/>
          </g>
        </g>
      </g>
    </g>
    <g id="Group_475" data-name="Group 475" transform="translate(161.045 123.643)">
      <g id="Group_474" data-name="Group 474">
        <g id="Group_473" data-name="Group 473">
          <path id="Path_986" data-name="Path 986" d="M165.968,124.156l.007,2.109h2.1v9.443h3.145l0,0,0,2.093h-3.142v5.242h-2.109l0,0,.005-2.089h-2.089v-3.147h2.082v-2.1h-2.083v-5.245h2.083v-2.1h-2.082v-4.2l2.082-.009,0,0Z" transform="translate(-163.887 -124.156)" fill="#fff"/>
        </g>
      </g>
    </g>
    <g id="Group_480" data-name="Group 480" transform="translate(149.502 121.562)">
      <g id="Group_479" data-name="Group 479">
        <g id="Group_478" data-name="Group 478">
          <g id="Group_477" data-name="Group 477">
            <g id="Group_476" data-name="Group 476">
              <path id="Path_987" data-name="Path 987" d="M149.5,131v-9.435h9.439l0,9.329L149.5,131Zm7.333-2.1v-5.236H151.6V128.9Z" transform="translate(-149.502 -121.563)" fill="#fff"/>
            </g>
          </g>
        </g>
      </g>
    </g>
    <g id="Group_483" data-name="Group 483" transform="translate(168.374 133.104)">
      <g id="Group_482" data-name="Group 482">
        <g id="Group_481" data-name="Group 481">
          <path id="Path_988" data-name="Path 988" d="M179.33,138.043l-.008,2.082h-4.195v-2.09H173.02l0,0,0-2.091h4.2v2.092l2.109.007,0,0Z" transform="translate(-173.02 -135.946)" fill="#fff"/>
        </g>
      </g>
    </g>
    <g id="Group_486" data-name="Group 486" transform="translate(161.047 142.528)">
      <g id="Group_485" data-name="Group 485">
        <g id="Group_484" data-name="Group 484">
          <path id="Path_989" data-name="Path 989" d="M165.97,147.69l.006,2.1h2.091v2.1h-2.089v2.1h-2.089V147.7l2.083-.006,0,0Z" transform="translate(-163.889 -147.69)" fill="#fff"/>
        </g>
      </g>
    </g>
    <g id="Group_489" data-name="Group 489" transform="translate(163.127 121.563)">
      <g id="Group_488" data-name="Group 488">
        <g id="Group_487" data-name="Group 487">
          <path id="Path_990" data-name="Path 990" d="M166.482,123.646l.007-2.081h2.093v2.085l-2.1-.006,0,0Z" transform="translate(-166.48 -121.565)" fill="#fff"/>
        </g>
      </g>
    </g>
    <g id="Group_492" data-name="Group 492" transform="translate(157.888 133.102)">
      <g id="Group_491" data-name="Group 491">
        <g id="Group_490" data-name="Group 490">
          <path id="Path_991" data-name="Path 991" d="M159.955,138.04v-2.1h2.092v2.094h-2.1l0,0Z" transform="translate(-159.952 -135.944)" fill="#fff"/>
        </g>
      </g>
    </g>
    <g id="Group_495" data-name="Group 495" transform="translate(149.502 135.188)">
      <g id="Group_494" data-name="Group 494">
        <g id="Group_493" data-name="Group 493">
          <path id="Path_992" data-name="Path 992" d="M151.579,138.544l.013,2.095H149.5v-2.087l2.079-.006,0,0Z" transform="translate(-149.502 -138.544)" fill="#fff"/>
        </g>
      </g>
    </g>
    <g id="Group_498" data-name="Group 498" transform="translate(149.503 146.738)">
      <g id="Group_497" data-name="Group 497">
        <g id="Group_496" data-name="Group 496">
          <path id="Path_993" data-name="Path 993" d="M151.587,152.939l0,2.086H149.5v-2.089l2.086,0,0,0Z" transform="translate(-149.503 -152.937)" fill="#fff"/>
        </g>
      </g>
    </g>
    <g id="Group_501" data-name="Group 501" transform="translate(170.485 142.54)">
      <g id="Group_500" data-name="Group 500">
        <g id="Group_499" data-name="Group 499">
          <path id="Path_994" data-name="Path 994" d="M175.65,147.705h3.135v3.138H175.65v-3.138Z" transform="translate(-175.65 -147.705)" fill="#fff"/>
        </g>
      </g>
    </g>
    <g id="Group_504" data-name="Group 504" transform="translate(170.477 124.709)">
      <g id="Group_503" data-name="Group 503">
        <g id="Group_502" data-name="Group 502">
          <path id="Path_995" data-name="Path 995" d="M175.641,125.485h3.142v3.143l-3.044,0-.1-3.144Z" transform="translate(-175.641 -125.485)" fill="#fff"/>
        </g>
      </g>
    </g>
  </g>
</svg>
